<?xml version="1.0" encoding="utf-8"?>
<!-- Generator: Adobe Illustrator 23.0.0, SVG Export Plug-In . SVG Version: 6.00 Build 0)  -->
<svg version="1.1" id="a978fc2e-920b-46c5-ae3a-790f71ac8cb7"
	 xmlns="http://www.w3.org/2000/svg" xmlns:xlink="http://www.w3.org/1999/xlink" x="0px" y="0px" viewBox="0 0 276 184"
	 style="enable-background:new 0 0 276 184;" xml:space="preserve">
<style type="text/css">
	.st0{display:none;opacity:0.25;}
	.st1{display:inline;fill:#989898;}
	.st2{display:none;}
	.st3{display:inline;}
	.st4{fill:#387EB8;}
	.st5{fill:#FFE052;}
	.st6{display:inline;fill:#F8EC7D;}
	.st7{display:inline;fill:#6FE3FF;}
	.st8{fill:#63316D;}
	.st9{display:inline;fill-rule:evenodd;clip-rule:evenodd;fill:#1B1F23;}
	.st10{display:inline;fill:#006BC0;}
	.st11{fill:#F2F2F2;}
	.st12{display:inline;fill:#F7DF1E;}
	.st13{display:inline;fill:#F6D2A2;}
	.st14{display:inline;fill:#69D7E2;}
	.st15{display:inline;fill:#FFFFFF;}
	.st16{display:inline;fill:#231F20;}
	.st17{fill-rule:evenodd;clip-rule:evenodd;fill:#FF4088;}
	.st18{fill:#C9177E;}
	.st19{fill-rule:evenodd;clip-rule:evenodd;fill:#FFFFFF;}
	.st20{display:none;fill-rule:evenodd;clip-rule:evenodd;fill:#EBB951;stroke:#FCD804;stroke-width:27;}
	.st21{display:none;fill-rule:evenodd;clip-rule:evenodd;fill:#33BA91;stroke:#00A88A;stroke-width:27;}
	.st22{display:none;fill-rule:evenodd;clip-rule:evenodd;fill:#0594CB;stroke:#0083C0;stroke-width:27;}
	.st23{display:none;fill-rule:evenodd;clip-rule:evenodd;fill:#FFFFFF;}
</style>
<g class="st0">
	<path class="st1" d="M125.6,67.4c-5.6,0-10.1,4.5-10.1,10.1s4.5,10.1,10.1,10.1s10.1-4.5,10.1-10.1l0,0
		C135.7,72,131.2,67.5,125.6,67.4z M125.6,84.7c-4,0-7.2-3.2-7.2-7.2s3.2-7.2,7.2-7.2c4,0,7.2,3.2,7.2,7.2l0,0l0,0
		C132.8,81.5,129.6,84.7,125.6,84.7z"/>
	<path class="st1" d="M180.2,57.7H99.7c-3.2,0-5.8,2.6-5.8,5.8v56.1c0,3.2,2.6,5.7,5.8,5.8h80.5c3.2,0,5.7-2.6,5.8-5.8V63.5
		C185.9,60.3,183.3,57.7,180.2,57.7z M105.2,122.5h-5.5c-1.6,0-2.9-1.3-2.9-2.9v-13.3l0,0l13-13c1.1-1.1,2.9-1.1,4.1,0l10.3,10.3
		L105.2,122.5z M183,119.6c0,1.6-1.3,2.9-2.9,2.9h-70.9l2-2l15.9-15.9l1-1L154.7,77c0.5-0.5,1.2-0.8,2-0.8s1.5,0.3,2,0.8l24.3,24.3
		V119.6z M183,97.2L160.8,75c-2.2-2.2-5.9-2.2-8.1,0l0,0l-26.5,26.5l-10.3-10.3c-2.3-2.2-5.9-2.2-8.1,0l-11,11V63.5
		c0-1.6,1.3-2.9,2.9-2.9h80.5c1.6,0,2.9,1.3,2.9,2.9L183,97.2L183,97.2z"/>
</g>
<g class="st2">
	<title>Layer 1</title>
	<g id="svg_1" class="st3">
		<path id="svg_2" class="st4" d="M139.5,37.1c-28,0-26.3,12.2-26.3,12.2v12.6H140v3.8h-37.4c0,0-17.9-2-17.9,26.2
			s15.7,27.3,15.7,27.3h9.3V106c0,0-0.5-15.7,15.4-15.7h26.5c0,0,14.9,0.2,14.9-14.4V51.7C166.6,51.7,168.8,37.1,139.5,37.1z
			 M124.8,45.5c2.7,0,4.8,2.2,4.8,4.8c0,2.7-2.2,4.8-4.8,4.8S120,53,120,50.4C120,47.7,122.1,45.5,124.8,45.5L124.8,45.5z"/>
		<path id="svg_3" class="st5" d="M140.3,146.9c28,0,26.3-12.2,26.3-12.2v-12.6h-26.8v-3.8h37.4c0,0,17.9,2,17.9-26.3
			s-15.7-27.3-15.7-27.3h-9.3V78c0,0,0.5,15.7-15.4,15.7h-26.5c0,0-14.9-0.2-14.9,14.4v24.2C113.3,132.3,111,146.9,140.3,146.9z
			 M155.1,138.5c-2.7,0-4.8-2.1-4.8-4.8s2.1-4.8,4.8-4.8s4.8,2.1,4.8,4.8l0,0C159.9,136.3,157.7,138.4,155.1,138.5L155.1,138.5z"/>
	</g>
</g>
<g class="st2">
	<title>Layer 1</title>
	<path id="svg_1_1_" class="st6" d="M171,66.7v50.7c0,4.2-3.4,7.6-7.6,7.6h-50.7c-4.2,0-7.6-3.4-7.6-7.6V66.7c0-4.2,3.4-7.6,7.6-7.6
		h50.7C167.5,59.1,171,62.5,171,66.7z M163.3,112.3V71.8c0-2.8-2.3-5.1-5.1-5.1h-40.6c-2.8,0-5.1,2.3-5.1,5.1v40.6
		c0,2.8,2.3,5.1,5.1,5.1h40.6C161.1,117.4,163.3,115.1,163.3,112.3z"/>
	<path id="svg_2_1_" class="st7" d="M163.3,71.8v40.6c0,2.8-2.3,5.1-5.1,5.1h-40.6c-2.8,0-5.1-2.3-5.1-5.1V71.8
		c0-2.8,2.3-5.1,5.1-5.1h40.6C161.1,66.7,163.3,69,163.3,71.8z"/>
	<path id="svg_3_1_" class="st7" d="M134.7,84.3l2.8,9.6h-5.6L134.7,84.3z"/>
	<g id="svg_4" class="st3">
		<path id="svg_5" class="st8" d="M158.3,65.2h-40.6c-3.6,0-6.6,3-6.6,6.6v40.6c0,3.6,3,6.6,6.6,6.6h40.6c3.6,0,6.6-3,6.6-6.6V71.8
			C164.9,68.1,161.9,65.2,158.3,65.2z M161.8,112.3c0,2-1.6,3.5-3.5,3.5h-40.6c-2,0-3.5-1.6-3.5-3.5V71.8c0-2,1.6-3.5,3.5-3.5h40.6
			c2,0,3.5,1.6,3.5,3.5V112.3z"/>
		<path id="svg_6" class="st8" d="M163.3,57.6h-50.7c-5,0-9.1,4.1-9.1,9.1v50.7c0,5,4.1,9.1,9.1,9.1h50.7c5,0,9.1-4.1,9.1-9.1V66.7
			C172.5,61.7,168.4,57.6,163.3,57.6z M169.4,117.4c0,3.4-2.7,6.1-6.1,6.1h-50.7c-3.4,0-6.1-2.7-6.1-6.1V66.7c0-3.4,2.7-6.1,6.1-6.1
			h50.7c3.4,0,6.1,2.7,6.1,6.1V117.4z M143.5,131.5c-0.8,0-1.5,0.7-1.5,1.5v12.7c0,0.8,0.7,1.5,1.5,1.5s1.5-0.7,1.5-1.5V133
			C145,132.2,144.3,131.5,143.5,131.5z M132.5,131.5c-0.8,0-1.5,0.7-1.5,1.5v12.7c0,0.8,0.7,1.5,1.5,1.5s1.5-0.7,1.5-1.5V133
			C134,132.2,133.4,131.5,132.5,131.5z M121.6,131.5c-0.8,0-1.5,0.7-1.5,1.5v12.7c0,0.8,0.7,1.5,1.5,1.5s1.5-0.7,1.5-1.5V133
			C123.1,132.2,122.4,131.5,121.6,131.5z M154.4,131.5c-0.8,0-1.5,0.7-1.5,1.5v12.7c0,0.8,0.7,1.5,1.5,1.5s1.5-0.7,1.5-1.5V133
			C156,132.2,155.3,131.5,154.4,131.5z M134,51V38.3c0-0.8-0.7-1.5-1.5-1.5s-1.5,0.7-1.5,1.5V51c0,0.8,0.7,1.5,1.5,1.5
			C133.4,52.5,134,51.8,134,51z M145,51V38.3c0-0.8-0.7-1.5-1.5-1.5s-1.5,0.7-1.5,1.5V51c0,0.8,0.7,1.5,1.5,1.5S145,51.8,145,51z
			 M156,51V38.3c0-0.8-0.7-1.5-1.5-1.5s-1.5,0.7-1.5,1.5V51c0,0.8,0.7,1.5,1.5,1.5S156,51.8,156,51z M123.1,51V38.3
			c0-0.8-0.7-1.5-1.5-1.5s-1.5,0.7-1.5,1.5V51c0,0.8,0.7,1.5,1.5,1.5S123.1,51.8,123.1,51z M191.7,85H179c-0.8,0-1.5,0.7-1.5,1.5
			s0.7,1.5,1.5,1.5h12.7c0.8,0,1.5-0.7,1.5-1.5S192.5,85,191.7,85z M191.7,96H179c-0.8,0-1.5,0.7-1.5,1.5s0.7,1.5,1.5,1.5h12.7
			c0.8,0,1.5-0.7,1.5-1.5S192.5,96,191.7,96z M191.7,106.9H179c-0.8,0-1.5,0.7-1.5,1.5s0.7,1.5,1.5,1.5h12.7c0.8,0,1.5-0.7,1.5-1.5
			S192.5,106.9,191.7,106.9z M191.7,74H179c-0.8,0-1.5,0.7-1.5,1.5s0.7,1.5,1.5,1.5h12.7c0.8,0,1.5-0.7,1.5-1.5S192.5,74,191.7,74z
			 M97,96H84.3c-0.8,0-1.5,0.7-1.5,1.5s0.7,1.5,1.5,1.5H97c0.8,0,1.5-0.7,1.5-1.5S97.8,96,97,96z M97,85H84.3
			c-0.8,0-1.5,0.7-1.5,1.5s0.7,1.5,1.5,1.5H97c0.8,0,1.5-0.7,1.5-1.5S97.8,85,97,85z M97,74H84.3c-0.8,0-1.5,0.7-1.5,1.5
			s0.7,1.5,1.5,1.5H97c0.8,0,1.5-0.7,1.5-1.5S97.8,74,97,74z M97,106.9H84.3c-0.8,0-1.5,0.7-1.5,1.5s0.7,1.5,1.5,1.5H97
			c0.8,0,1.5-0.7,1.5-1.5S97.8,106.9,97,106.9z"/>
		<path id="svg_7" class="st8" d="M136.7,81.2L136.7,81.2c-0.3-0.8-1.3-1.1-2-1.1c-1,0-1.8,0.4-2,1.1l-5.5,18.1c0,0.1,0,0.2,0,0.3
			c0,0.8,1.1,1.4,2,1.4c0.8,0,1-0.4,1.2-0.7l1.1-3.9h6.7l1.1,3.9c0.1,0.5,0.5,0.7,1.1,0.7c0.9,0,2-0.6,2-1.4c0-0.1,0-0.2-0.1-0.3
			L136.7,81.2z M137.3,93.8h-5.2l2.6-9L137.3,93.8z M145.9,80.3c-0.9,0-1.5,0.4-1.5,1.1v18.5c0,0.6,0.6,1.1,1.5,1.1s1.5-0.4,1.5-1.1
			V81.3C147.4,80.7,146.8,80.3,145.9,80.3L145.9,80.3z"/>
	</g>
</g>
<g class="st2">
	<title>Layer 1</title>
	<path id="svg_1_2_" class="st9" d="M137.3,42.1c-30.5,0-55.2,24.7-55.2,55.2c0,24.4,15.8,45.1,37.7,52.4c2.8,0.5,3.8-1.2,3.8-2.6
		c0-1.3-0.1-5.7-0.1-10.3c-13.9,2.6-17.5-3.4-18.6-6.5c-0.6-1.6-3.3-6.5-5.7-7.8c-1.9-1-4.7-3.6-0.1-3.7c4.3-0.1,7.5,4,8.5,5.7
		c5,8.4,12.9,6,16.1,4.6c0.5-3.6,1.9-6,3.5-7.4c-12.3-1.4-25.1-6.1-25.1-27.3c0-6,2.1-11,5.7-14.8c-0.6-1.4-2.5-7,0.6-14.6
		c0,0,4.6-1.4,15.2,5.7c4.4-1.2,9.1-1.9,13.8-1.9s9.4,0.6,13.8,1.9c10.6-7.2,15.2-5.7,15.2-5.7c3,7.6,1.1,13.3,0.6,14.6
		c3.5,3.9,5.7,8.8,5.7,14.8c0,21.2-12.9,25.9-25.2,27.3c2,1.7,3.7,5,3.7,10.2c0,7.4-0.1,13.3-0.1,15.2c0,1.4,1,3.2,3.8,2.6
		c21.8-7.3,37.6-28,37.6-52.4C192.5,66.8,167.8,42.1,137.3,42.1L137.3,42.1z"/>
</g>
<g class="st2">
	<title>Layer 1</title>
	<path id="svg_1_3_" class="st10" d="M193.2,96c0,30.5-24.7,55.2-55.2,55.2S82.8,126.4,82.8,96s24.7-55.2,55.2-55.2
		c28.1,0,51.4,21.1,54.8,48.3c0.3,2,0.4,4,0.4,6C193.2,95.3,193.2,95.6,193.2,96z"/>
	<g id="svg_2_2_" class="st3">
		<path id="svg_3_2_" class="st11" d="M193.2,95c-4.7,5.7-14,5.3-14,5.3c-5.7,24.5-40.1,37-64,30.9c-23.9-6.1-20.6-34.6-20.6-34.6
			h69.9c5.8,0,6.2-1.8,6.2-1.8c-5.1-12.1,2.8-18.6,2.8-18.6c6.1,1.1,7.7,11.6,7.7,11.6c5-0.9,9.1,0.2,11.6,1.2
			C193,91,193.2,93,193.2,95L193.2,95z"/>
		<path id="svg_4_1_" class="st11" d="M102.1,85.5h9.8v8.9h-9.8V85.5z M114.4,85.5h9.8v8.9h-9.8V85.5z M151.3,85.5h9.8v8.9h-9.8
			V85.5z M139,85.5h9.8v8.9H139V85.5L139,85.5z M139,62.7h9.8v8.9H139V62.7L139,62.7z M126.7,85.5h9.8v8.9h-9.8V85.5z M114.4,74.1
			h9.8V83h-9.8V74.1z M139,74.1h9.8V83H139V74.1L139,74.1z M126.7,74.1h9.8V83h-9.8V74.1z"/>
	</g>
</g>
<g class="st2">
	<title>Layer 1</title>
	<path id="svg_1_4_" class="st12" d="M82.8,36.8h110.4v110.4H82.8V36.8z"/>
	<path id="svg_2_3_" class="st3" d="M157,123.1c2.2,3.6,5.1,6.3,10.2,6.3c4.3,0,7-2.1,7-5.1c0-3.6-2.8-4.8-7.6-6.9l-2.6-1.1
		c-7.5-3.2-12.5-7.2-12.5-15.6c0-7.8,5.9-13.7,15.2-13.7c6.6,0,11.3,2.3,14.8,8.3l-8.1,5.2c-1.8-3.2-3.7-4.4-6.7-4.4s-5,1.9-5,4.4
		c0,3.1,1.9,4.4,6.4,6.3l2.6,1.1c8.8,3.8,13.8,7.6,13.8,16.3c0,9.3-7.3,14.5-17.2,14.5c-9.6,0-15.9-4.6-18.9-10.6L157,123.1
		L157,123.1z M120.3,124c1.6,2.9,3.1,5.3,6.7,5.3c3.4,0,5.6-1.3,5.6-6.5V87.5H143v35.4c0,10.7-6.3,15.6-15.5,15.6
		c-8.3,0-13.1-4.3-15.6-9.5L120.3,124L120.3,124z"/>
</g>
<g class="st2">
	<title>Layer 1</title>
	<path id="svg_1_5_" class="st13" d="M98.4,96.9c0.2,3.3,3.4,1.7,4.9,0.7c1.4-1,1.8-0.2,1.9-2.1c0.1-1.3,0.2-2.5,0.2-3.8
		c-2.1-0.2-4.4,0.3-6.1,1.6C98.3,94,96.7,96.1,98.4,96.9 M163.5,137c2.5,1.6,7.1,6.2,3.3,8.5c-3.6,3.3-5.6-3.6-8.8-4.6
		C159.3,139,161,137.3,163.5,137z M118.7,142.3c-2.9,0.4-4.6,3.1-7.1,4.5c-2.3,1.4-3.2-0.4-3.4-0.8c-0.3-0.2-0.3,0.2-0.9-0.4
		c-2.2-3.4,2.2-5.9,4.5-7.5C115,137.3,117,140.1,118.7,142.3L118.7,142.3z M177.4,96.5c-0.2,3.3-3.4,1.7-4.9,0.7
		c-1.4-1-1.8-0.2-1.9-2.1c-0.1-1.3-0.2-2.5-0.2-3.8c2.1-0.2,4.4,0.3,6.1,1.6C177.4,93.6,179.1,95.7,177.4,96.5"/>
	<path id="svg_2_4_" class="st14" d="M168.7,56.7c11.3-4,2.5-19.5-7.4-12.6c-6.5-5.5-15.4-6.6-24.7-6.6c-9.2,0.7-17.9,2.4-23.9,7.7
		c-9.8-6.3-18.9,8.9-7.3,12.7c-3.2,12.5,0.4,25.3-0.1,38.1c-0.5,11.5-3.5,26.8,2.9,37.1c5.4,8.8,17.1,11.9,26.7,12.3
		c12.3,0.4,27.1-2.6,33.1-14.4c5.7-11.3,4.1-25.4,3.4-37.6C170.5,81.1,171.9,68.6,168.7,56.7L168.7,56.7L168.7,56.7z"/>
	<path id="svg_3_3_" class="st3" d="M178.2,94.5c-0.3-0.7-0.9-1.4-1.5-1.8c-1.5-1-3.3-1.6-5.3-1.7c-0.1-2-0.1-4.1-0.1-6.8v-2.5
		c0-7.8-0.1-11.2-0.6-15.5c-0.3-3.4-0.9-6.5-1.6-9.4c2.6-1,4.2-2.6,4.9-4.7c0.6-1.9,0.3-4.1-0.8-6.1c-1.1-1.9-2.9-3.3-4.9-3.9
		c-2.2-0.6-4.6-0.2-6.9,1.4c-2.1-1.7-4.4-3.1-7.1-4.1c-4.7-1.7-10.2-2.4-17.6-2.4v0.3V37c-8,0.6-13.8,1.9-18.7,4.2
		c-2,1-3.7,2.1-5.2,3.4c-2.3-1.5-4.8-1.8-7-1.1c-2.1,0.6-3.9,2.1-5,4.1c-1.1,1.9-1.3,4.1-0.6,6.1c0.7,1.9,2.4,3.4,4.9,4.3
		c-0.8,3.2-1.2,6.6-1.3,10.3c-0.1,3.6,0.1,6.6,0.7,13.1c0.4,4.9,0.6,7.2,0.6,9.9c-2.2-0.1-4.3,0.5-5.9,1.6c-0.6,0.4-1.2,1.1-1.5,1.8
		c-0.4,0.9-0.3,1.7,0.6,2.2c0.1,1.5,1,2.2,2.3,2.1c1-0.1,2.1-0.6,3.1-1.3c0.2-0.2,0.4-0.3,0.7-0.4c0.1,0,0.2-0.1,0.3-0.1
		c0,0,0.2-0.1,0.3-0.1c0.1,0,0.2-0.1,0.3-0.1c-0.1,1.5-0.2,3-0.5,6.6c-0.3,4-0.5,6.2-0.5,8.6c-0.3,9.1,0.8,15.6,4,20.9
		c1,1.6,2.2,3.1,3.7,4.4c-0.3,0.2-1.5,1.1-1.9,1.4c-1.3,1-2.2,1.9-2.8,2.8c-0.7,1.2-0.7,2.5,0.1,3.8l0,0l0,0
		c0.3,0.3,0.5,0.4,0.8,0.4h0.1c0,0.1,0.1,0.1,0.1,0.2c0.1,0.1,0.2,0.3,0.3,0.4c0.8,0.9,1.9,1.1,3.4,0.3c0.8-0.4,1.4-0.9,2.6-1.9
		l0.1-0.1c1.9-1.6,2.9-2.2,4.3-2.5l0.5-0.1c0.2,0.1,0.4,0.2,0.6,0.3c4.5,1.8,9.7,2.8,15,3c6.8,0.3,13.4-0.6,19-2.6
		c1.4-0.5,2.9-1.2,4.2-1.9c0.8,0.3,1.5,1,2.9,2.5l0.1,0.1c0.1,0.1,0.1,0.1,0.1,0.1c0.1,0.1,0.2,0.2,0.2,0.3c1,1.2,1.7,1.8,2.5,2.2
		c1,0.4,2.1,0.2,3.1-0.7c1.8-1.1,2-2.9,0.8-4.9c-0.9-1.4-2.3-2.9-3.7-3.9c1.7-1.7,3.1-3.6,4.2-5.7c3-6.1,4.2-13.2,4.2-22.3
		c0-3.2-0.2-6.1-0.5-11.4v-0.2c0.2,0.1,0.3,0.2,0.5,0.3c1,0.7,2.1,1.2,3.1,1.3c1.3,0.1,2.2-0.6,2.3-2.1
		C178.5,96.2,178.6,95.4,178.2,94.5L178.2,94.5L178.2,94.5z M168.1,42.9c1.9,0.5,3.5,1.8,4.6,3.6c1,1.8,1.3,3.8,0.7,5.5
		c-0.6,1.9-2.1,3.4-4.5,4.2c-0.5-1.7-1-3.4-1.7-5c0.9-0.8,1.4-1.8,0.6-3.2c-0.7-1.4-2-1.6-3.3-1.1c-0.8-1.1-1.7-2-2.7-2.9
		C164,42.7,166.1,42.3,168.1,42.9L168.1,42.9z M100.6,53.6c-0.7-1.7-0.4-3.7,0.6-5.5s2.7-3.2,4.6-3.7c2-0.6,4.2-0.3,6.4,1
		c-1.2,1.1-2.4,2.4-3.3,3.8c-1.6-0.9-3.3-1-4.3,0.7c-1,1.9,0.2,3,1.8,3.9c-0.2,0.5-0.4,1.1-0.6,1.7c-0.2,0.7-0.4,1.4-0.6,2.2
		C102.8,56.6,101.3,55.3,100.6,53.6L100.6,53.6z M104.4,96.7l-0.2,0.1c-0.1,0-0.2,0.1-0.3,0.1c-0.3,0.1-0.5,0.3-0.8,0.4
		c-0.9,0.6-2,1.1-2.8,1.2c-1,0.1-1.5-0.3-1.6-1.5c0.7-0.2,1-0.4,1.2-0.8L99.5,96c-0.2,0.3-0.4,0.3-1,0.5c0,0,0,0-0.1,0
		c-0.5-0.3-0.6-0.7-0.3-1.4c0.3-0.6,0.8-1.2,1.3-1.6c1.5-1.1,3.5-1.6,5.6-1.5c0,0.8,0,1.6,0,2.3c0,0.1,0,0.2,0,0.3
		c0,0.4,0,0.6-0.1,0.9C104.8,96.5,104.8,96.6,104.4,96.7L104.4,96.7L104.4,96.7z M114,144.5L114,144.5c-1.2,1.1-1.8,1.5-2.5,1.9
		c-1.2,0.7-2,0.6-2.6-0.1c-0.1-0.1-0.2-0.2-0.2-0.3l-0.1-0.1l0,0c0.1-0.6,0.3-1,0.9-1.9c0,0,0,0,0-0.1c0.3-0.5,0.5-0.8,0.7-1.1
		l-0.6-0.3c-0.1,0.3-0.3,0.5-0.6,1c0,0,0,0,0,0.1c-0.6,0.8-0.8,1.3-1,1.9h-0.1c-0.1-0.1-0.2-0.1-0.3-0.2c-1.2-2-0.3-3.6,2.5-5.7
		c0.3-0.3,1.5-1.1,1.8-1.3c0.1,0,0.1,0,0.2-0.1c1.7,1.5,3.7,2.7,5.9,3.8c0,0,0,0.1,0.1,0.1C116.8,142.4,115.8,143,114,144.5
		L114,144.5L114,144.5z M167.2,141.1c1,1.6,1,3-0.3,3.9c-0.1-0.2-0.2-0.4-0.3-0.7c0,0,0,0,0-0.1c-0.4-1.2-0.7-1.7-1.3-2.3l-0.4,0.4
		c0.5,0.4,0.7,0.9,1.1,2c0,0,0,0,0,0.1c0.2,0.4,0.3,0.7,0.3,0.9c-0.8,0.7-1.6,0.8-2.3,0.5s-1.3-0.9-2.3-2c-0.1-0.1-0.1-0.2-0.2-0.3
		l-0.1-0.1l-0.1-0.1c-1.2-1.4-1.9-2.1-2.6-2.5c1.8-1,3.4-2.2,4.8-3.5C164.9,138.3,166.4,139.7,167.2,141.1L167.2,141.1L167.2,141.1z
		 M167.6,130.8c-2.7,5.5-7.5,9.3-14,11.7c-5.5,2-12,2.8-18.8,2.6c-11.6-0.4-21.7-4.5-26.4-12.1c-3.2-5.1-4.2-11.6-3.9-20.5
		c0.1-2.4,0.2-4.6,0.5-8.6c0.3-4.5,0.4-5.8,0.5-7.8c0.1-1.5,0.1-2.9,0-4.5c-0.1-2.8-0.2-5-0.6-10c-0.6-6.6-0.7-9.5-0.7-13.1
		c0.1-4.8,0.7-8.9,2.1-12.9c2.2-6.4,6.1-10.8,11.8-13.6c4.8-2.3,10.6-3.5,18.5-4.2c7.4,0,12.8,0.7,17.4,2.4
		c5.6,2.1,9.7,5.7,12.6,11.2c1.8,4.5,2.9,9.3,3.5,14.9c0.4,4.2,0.5,7.7,0.6,15.4v2.5c0,3.8,0.1,6.5,0.3,9.2c0.1,1,0.1,1.5,0.3,4
		c0.3,5.4,0.5,8.2,0.5,11.4C171.8,117.8,170.6,124.8,167.6,130.8L167.6,130.8L167.6,130.8z M177.3,96.1L177.3,96.1
		c-0.7-0.2-0.9-0.3-1-0.6l-0.5,0.4c0.3,0.4,0.6,0.5,1.2,0.8c-0.1,1.1-0.7,1.6-1.6,1.5c-0.8-0.1-1.9-0.6-2.8-1.2
		c-0.3-0.2-0.5-0.3-0.8-0.4h-0.1c-0.1-1.7-0.1-2.2-0.2-3.1l-0.1-1.7c1.8,0,3.5,0.6,4.8,1.6c0.5,0.3,1,1,1.3,1.6
		C177.9,95.4,177.9,95.9,177.3,96.1L177.3,96.1L177.3,96.1z"/>
	<path id="svg_4_2_" class="st15" d="M141.4,70.1c0,1.6,0.3,3.4,0.1,5.1c-0.4,0.8-1.3,0.9-2,1.2c-1-0.2-1.9-0.8-2.3-1.8
		c-0.3-1.9,0.1-3.8,0.2-5.7c0-0.1,1.2,0,2.3,0.3C140.6,69.6,141.4,70.1,141.4,70.1z M132.5,70.3c-0.9,3.4,1.2,8.8,4.6,4.3
		c-0.3-1.9,0-3.7,0.1-5.6C137.2,68.8,132.5,70.1,132.5,70.3L132.5,70.3z"/>
	<path id="svg_5_1_" class="st3" d="M141.8,71.6c-0.1-1-0.1-1.3-0.1-1.8v-0.2l-0.2-0.1l-4-1.2v-0.2l-0.4,0.1l0,0l0,0l-4.5,1.1h-0.2
		l-0.1,0.2c-0.7,1.7-0.5,4.2,0.3,5.8c1,1.8,2.7,1.8,4.3-0.2c0.5,0.9,1.4,1.6,2.4,1.7h0.1h0.1c0.1-0.1,0.3-0.1,0.5-0.2c0,0,0,0,0.1,0
		c0.9-0.3,1.3-0.6,1.6-1.2l0,0v-0.1c0.1-0.6,0.1-1.2,0.1-1.8C141.9,73,141.9,72.5,141.8,71.6L141.8,71.6L141.8,71.6z M136.7,70.5
		c0,0.6-0.1,0.8-0.1,1.1c-0.1,1.2-0.1,2.1,0,2.9c-1.5,1.9-2.7,1.9-3.5,0.5c-0.8-1.3-0.9-3.6-0.3-5.1l4-1
		C136.8,69.3,136.8,69.7,136.7,70.5z M141.2,75.2c-0.2,0.4-0.5,0.6-1.3,0.8c0,0,0,0-0.1,0c-0.2,0.1-0.3,0.1-0.4,0.2
		c-0.9-0.2-1.6-0.7-1.9-1.5c-0.1-0.9-0.1-1.7,0-2.9c0-0.3,0-0.5,0.1-1.1c0.1-0.7,0.1-1.2,0.1-1.6l3.5,1c0,0.4,0,0.8,0.1,1.6
		c0.1,0.9,0.1,1.3,0.1,1.8C141.3,74.1,141.3,74.6,141.2,75.2L141.2,75.2z"/>
	<path id="svg_6_1_" class="st15" d="M113.4,56.3c2.9,11.3,21.1,8.4,20.4-2.9C132.9,39.8,110.6,42.4,113.4,56.3"/>
	<path id="svg_7_1_" class="st3" d="M134.1,53.4c-0.2-3.3-1.6-5.9-4.1-7.5c-2.2-1.5-5-2-7.8-1.7c-2.8,0.4-5.4,1.6-7.1,3.6
		c-1.9,2.2-2.6,5.1-2,8.5l0.3-0.1l-0.3,0.1C116.1,68,134.8,65.2,134.1,53.4z M113.7,56.3c-0.6-3.2,0.1-5.9,1.8-8
		c1.6-1.9,4.1-3.1,6.7-3.5s5.4,0.2,7.4,1.6c2.2,1.5,3.6,3.9,3.8,7C134.1,64.5,116.5,67.2,113.7,56.3L113.7,56.3z"/>
	<ellipse id="svg_8" class="st3" cx="118.4" cy="54.5" rx="3.1" ry="3.3"/>
	<ellipse id="svg_9" class="st15" cx="119.8" cy="55.2" rx="0.7" ry="0.9"/>
	<path id="svg_10" class="st15" d="M138.8,54.2c2.2,13,23.5,9.6,20.5-3.5C156.6,38.9,138.1,42.2,138.8,54.2"/>
	<path id="svg_11" class="st3" d="M159.6,50.6c-2.8-12.1-21.8-8.8-21.1,3.6l0,0c1,6.1,6.5,9.3,12.6,8.3c2.8-0.5,5.2-1.8,6.8-3.8
		C159.7,56.6,160.4,53.8,159.6,50.6L159.6,50.6z M157.5,58.4c-1.5,1.8-3.8,3.1-6.5,3.5c-5.7,1-10.9-2-11.9-7.8
		c-0.7-11.7,17.2-14.9,19.9-3.5C159.7,53.7,159.2,56.4,157.5,58.4z"/>
	<ellipse id="svg_12" class="st3" cx="144.1" cy="53.7" rx="3" ry="3.3"/>
	<ellipse id="svg_13" class="st15" cx="145.5" cy="54.4" rx="0.7" ry="0.9"/>
	<path id="svg_14" class="st13" d="M133.1,63.4c-2.5,0.2-4.5,3.2-3.2,5.5c1.7,3.1,5.5-0.3,7.9,0c2.8,0.1,5,2.9,7.2,0.5
		c2.4-2.7-1-5.3-3.8-6.4L133.1,63.4L133.1,63.4L133.1,63.4z"/>
	<path id="svg_15" class="st16" d="M145.3,65.6c-0.9-1.1-2.3-2.1-4-2.7h-0.1h-0.1l-8.1,0.3c-2.8,0.3-4.8,3.5-3.5,6
		c0.5,1,1.3,1.4,2.2,1.5c0.7,0,1.5-0.1,2.7-0.5c0.1,0,0.2-0.1,0.4-0.1c1.6-0.5,2.2-0.7,2.9-0.6l0,0c0.8,0,1.4,0.2,2.6,0.7
		c1.3,0.5,1.7,0.7,2.4,0.8c0.9,0.1,1.7-0.3,2.4-1C146.5,68.4,146.4,66.9,145.3,65.6L145.3,65.6L145.3,65.6z M144.8,69.3
		c-0.6,0.7-1.2,0.9-1.9,0.9c-0.6,0-1-0.2-2.2-0.7c-1.3-0.5-2-0.7-2.8-0.8c-0.8-0.1-1.5,0.1-3.1,0.6c-0.2,0.1-0.3,0.1-0.4,0.1
		c-2.3,0.8-3.4,0.7-4.2-0.7c-1.1-2.1,0.6-4.8,3-5.1l8-0.3c1.5,0.6,2.9,1.6,3.7,2.5C145.8,67.1,145.8,68.2,144.8,69.3L144.8,69.3z"/>
	<path id="svg_16" class="st3" d="M141.8,62.1c-1-3.6-9.2-3.1-9,1.2C133.2,66.5,142.8,65.6,141.8,62.1L141.8,62.1z"/>
</g>
<g>
	<g>
		<path class="st17" d="M144.4,42.6l32.6,19c3.9,2.2,6.2,6.4,6.2,10.9v38.9c0,4.9-2.7,9.5-7,11.9l-32.4,18.2
			c-4.3,2.4-9.6,2.4-13.8-0.1l-29.8-17.2c-4.7-2.7-7.6-7.7-7.6-13.1V74.3c0-5.4,2.8-10.5,7.4-13.4l29.3-18.1
			C134,40,139.8,39.9,144.4,42.6z"/>
		<path class="st18" d="M137.1,147.2c-3.1,0-6.2-0.8-8.9-2.4l-29.8-17.2c-5.9-3.4-9.5-9.7-9.5-16.4V74.3c0-6.8,3.5-13,9.3-16.6
			l29.3-18.1c5.8-3.6,13-3.7,18.9-0.2l0,0l32.6,19c5,2.9,8.2,8.4,8.2,14.2v38.9c0,6.3-3.4,12.2-8.9,15.3l-32.4,18.2
			C143.1,146.4,140.1,147.2,137.1,147.2z M137.1,44.5c-1.9,0-3.9,0.5-5.6,1.6l-29.3,18.1c-3.5,2.2-5.6,5.9-5.6,10.1v36.9
			c0,4,2.2,7.8,5.6,9.8l29.8,17.2c3.1,1.8,6.9,1.8,10,0l32.4-18.2c3.1-1.7,5-5,5-8.6V72.5c0-3.1-1.7-6-4.3-7.5l-32.6-19l0,0
			C140.8,45,139,44.5,137.1,44.5z"/>
	</g>
	<polygon class="st19" points="115.3,121.3 115.3,62.2 127.7,62.2 127.7,83.7 148.2,83.7 148.2,62.2 160.6,62.2 160.6,121.3 
		148.2,121.3 148.2,95.5 127.7,95.5 127.7,121.3 	"/>
</g>
<path class="st20" d="M530.5,424.1l112.3,64.3c13.4,7.7,21.6,21.9,21.6,37.3V668c0,14.6-7.9,28-20.7,35l-120.9,66.6
	c-12.9,7.1-28.5,6.9-41.2-0.4L375.4,708c-17.7-10.2-28.6-29-28.6-49.4V538.1c0-22.5,11.8-43.4,31.2-54.9l98-58.6
	C492.7,414.6,513.6,414.4,530.5,424.1L530.5,424.1z"/>
<path class="st21" d="M143.4,422.2L260.7,489c12.8,7.3,20.7,20.9,20.7,35.6v139.5c0,16.3-8.8,31.4-23.1,39.3L141,768.8
	c-13.6,7.6-30.1,7.4-43.5-0.4L-8.4,706.8c-17.2-10-27.8-28.5-27.8-48.4V539.5c0-24,12.6-46.2,33.2-58.4l98.1-58.4
	C109.9,413.8,128.4,413.7,143.4,422.2L143.4,422.2z"/>
<path class="st22" d="M-239.4,420.4l117.2,68.9c12.2,7.1,19.7,20.2,19.7,34.3l0.7,138.7c0.1,17.5-9.3,33.7-24.6,42.2l-115.1,64.1
	c-13.9,7.7-30.8,7.6-44.5-0.4l-105.8-61.6c-16.9-9.8-27.3-28-27.3-47.5v-123c0-21.8,11.3-42.1,29.9-53.6l99.3-61.4
	C-274.6,411.4-255.1,411.2-239.4,420.4L-239.4,420.4z"/>
<path class="st23" d="M506,488.5c58.8,0,106.5,47.7,106.5,106.5c0,58.8-47.7,106.5-106.5,106.5c-58.8,0-106.5-47.7-106.5-106.5
	C399.5,536.3,447.2,488.5,506,488.5z"/>
<path class="st23" d="M506,528.1c36.9,0,66.9,30,66.9,66.9c0,37-30,66.9-66.9,66.9c-36.9,0-66.9-30-66.9-66.9
	C439.1,558.1,469.1,528.1,506,528.1L506,528.1L506,528.1z"/>
<path class="st23" d="M222.2,593.4c0,47.2-8.9,60.9-26.8,80.6c-17.9,19.6-41.6,27.6-71.1,27.6c-27,0-48.8-9.6-67.6-26.2
	c-20.9-18.5-36.1-47-36.1-79c0-31.4,11.7-58.5,32.5-78.7c18.2-17.7,45.3-29.2,73.3-29.2c33.8,0,68.8,16,90.4,47.5l-31.7,26.8
	c-13.5-25-32.9-33.5-60.8-34.3c-30.8-0.9-64.8,28.5-62.3,67.8c1.4,21.9,11.7,59.7,61,66.6c25.9,3.6,55.4-24,55.4-39h-48.7v-37.5
	h92.5L222.2,593.4L222.2,593.4L222.2,593.4z"/>
<path class="st23" d="M-340.4,498.8h42.3V611c0,17.8,0.5,29.3,1.5,34.6c1.7,8.5,4.8,14.4,11.2,19.5c6.4,5.1,13.8,6.6,24.8,6.6
	c11.2,0,15-1.7,20.7-6.6c5.7-4.9,9.1-9.5,10.3-16.5c1.2-7.1,3.1-18.8,3.1-35.2V498.8h42.3v108.8c0,24.9-1.1,42.4-3.2,52.7
	c-2.1,10.3-6.1,18.9-11.8,26c-5.7,7.1-13.4,12.7-23,16.9c-9.6,4.2-22.2,6.3-37.7,6.3c-18.7,0-32.9-2.3-42.5-6.9
	c-9.7-4.6-17.3-10.5-22.9-17.8c-5.6-7.3-9.3-15-11.1-23c-2.6-11.9-3.9-29.4-3.9-52.6L-340.4,498.8L-340.4,498.8L-340.4,498.8z"/>
</svg>
