<?xml version="1.0" encoding="utf-8"?>
<!-- Generator: Adobe Illustrator 23.0.0, SVG Export Plug-In . SVG Version: 6.00 Build 0)  -->
<svg version="1.1" id="a978fc2e-920b-46c5-ae3a-790f71ac8cb7"
	 xmlns="http://www.w3.org/2000/svg" xmlns:xlink="http://www.w3.org/1999/xlink" x="0px" y="0px" viewBox="0 0 276 184"
	 style="enable-background:new 0 0 276 184;" xml:space="preserve">
<style type="text/css">
	.st0{display:none;opacity:0.25;}
	.st1{fill:#989898;}
	.st2{display:none;}
	.st3{fill:#387EB8;}
	.st4{fill:#FFE052;}
	.st5{display:inline;fill:#F8EC7D;}
	.st6{display:inline;fill:#6FE3FF;}
	.st7{display:inline;}
	.st8{fill:#63316D;}
	.st9{display:inline;fill-rule:evenodd;clip-rule:evenodd;fill:#1B1F23;}
	.st10{display:inline;fill:#006BC0;}
	.st11{fill:#F2F2F2;}
	.st12{fill:#F7DF1E;}
</style>
<g class="st0">
	<path class="st1" d="M125.6,67.4c-5.6,0-10.1,4.5-10.1,10.1s4.5,10.1,10.1,10.1s10.1-4.5,10.1-10.1l0,0
		C135.7,72,131.2,67.5,125.6,67.4z M125.6,84.7c-4,0-7.2-3.2-7.2-7.2s3.2-7.2,7.2-7.2s7.2,3.2,7.2,7.2c0,0,0,0,0,0l0,0
		C132.8,81.5,129.6,84.7,125.6,84.7z"/>
	<path class="st1" d="M180.2,57.7H99.7c-3.2,0-5.8,2.6-5.8,5.8v56.1c0,3.2,2.6,5.7,5.8,5.8h80.5c3.2,0,5.7-2.6,5.8-5.8V63.5
		C185.9,60.3,183.3,57.7,180.2,57.7z M105.2,122.5h-5.5c-1.6,0-2.9-1.3-2.9-2.9v-13.3l0,0l13-13c1.1-1.1,2.9-1.1,4.1,0l10.3,10.3
		L105.2,122.5z M183,119.6c0,1.6-1.3,2.9-2.9,2.9h-70.9l2-2l15.9-15.9l1-1L154.7,77c0.5-0.5,1.2-0.8,2-0.8c0.8,0,1.5,0.3,2,0.8
		l24.3,24.3V119.6z M183,97.2L160.8,75c-2.2-2.2-5.9-2.2-8.1,0l0,0l-26.5,26.5l-10.3-10.3c-2.3-2.2-5.9-2.2-8.1,0l-11,11V63.5
		c0-1.6,1.3-2.9,2.9-2.9h80.5c1.6,0,2.9,1.3,2.9,2.9V97.2z"/>
</g>
<g class="st2">
	<title>Layer 1</title>
	<g id="svg_1">
		<path id="svg_2" class="st3" d="M139.5,37.1c-28,0-26.3,12.2-26.3,12.2v12.6H140v3.8h-37.4c0,0-17.9-2-17.9,26.2
			s15.7,27.3,15.7,27.3h9.3V106c0,0-0.5-15.7,15.4-15.7h26.5c0,0,14.9,0.2,14.9-14.4V51.7C166.6,51.7,168.8,37.1,139.5,37.1z
			 M124.8,45.5c2.7,0,4.8,2.2,4.8,4.8c0,2.7-2.2,4.8-4.8,4.8S120,53,120,50.4C120,47.7,122.1,45.5,124.8,45.5
			C124.8,45.5,124.8,45.5,124.8,45.5z"/>
		<path id="svg_3" class="st4" d="M140.3,146.9c28,0,26.3-12.2,26.3-12.2v-12.6h-26.8v-3.8h37.4c0,0,17.9,2,17.9-26.3
			s-15.7-27.3-15.7-27.3h-9.3V78c0,0,0.5,15.7-15.4,15.7h-26.5c0,0-14.9-0.2-14.9,14.4v24.2C113.3,132.3,111,146.9,140.3,146.9z
			 M155.1,138.5c-2.7,0-4.8-2.1-4.8-4.8c0-2.7,2.1-4.8,4.8-4.8s4.8,2.1,4.8,4.8c0,0,0,0,0,0C159.9,136.3,157.7,138.4,155.1,138.5
			C155.1,138.5,155.1,138.5,155.1,138.5z"/>
	</g>
</g>
<g class="st2">
	<title>Layer 1</title>
	<path id="svg_1_1_" class="st5" d="M171,66.7v50.7c0,4.2-3.4,7.6-7.6,7.6h-50.7c-4.2,0-7.6-3.4-7.6-7.6V66.7c0-4.2,3.4-7.6,7.6-7.6
		h50.7C167.5,59.1,171,62.5,171,66.7z M163.3,112.3V71.8c0-2.8-2.3-5.1-5.1-5.1h-40.6c-2.8,0-5.1,2.3-5.1,5.1v40.6
		c0,2.8,2.3,5.1,5.1,5.1h40.6C161.1,117.4,163.3,115.1,163.3,112.3z"/>
	<path id="svg_2_1_" class="st6" d="M163.3,71.8v40.6c0,2.8-2.3,5.1-5.1,5.1h-40.6c-2.8,0-5.1-2.3-5.1-5.1V71.8
		c0-2.8,2.3-5.1,5.1-5.1h40.6C161.1,66.7,163.3,69,163.3,71.8z"/>
	<path id="svg_3_1_" class="st6" d="M134.7,84.3l2.8,9.6h-5.6L134.7,84.3z"/>
	<g id="svg_4" class="st7">
		<path id="svg_5" class="st8" d="M158.3,65.2h-40.6c-3.6,0-6.6,3-6.6,6.6v40.6c0,3.6,3,6.6,6.6,6.6h40.6c3.6,0,6.6-3,6.6-6.6V71.8
			C164.9,68.1,161.9,65.2,158.3,65.2z M161.8,112.3c0,2-1.6,3.5-3.5,3.5h-40.6c-2,0-3.5-1.6-3.5-3.5V71.8c0-2,1.6-3.5,3.5-3.5h40.6
			c2,0,3.5,1.6,3.5,3.5V112.3z"/>
		<path id="svg_6" class="st8" d="M163.3,57.6h-50.7c-5,0-9.1,4.1-9.1,9.1v50.7c0,5,4.1,9.1,9.1,9.1h50.7c5,0,9.1-4.1,9.1-9.1V66.7
			C172.5,61.7,168.4,57.6,163.3,57.6z M169.4,117.4c0,3.4-2.7,6.1-6.1,6.1h-50.7c-3.4,0-6.1-2.7-6.1-6.1V66.7c0-3.4,2.7-6.1,6.1-6.1
			h50.7c3.4,0,6.1,2.7,6.1,6.1V117.4z M143.5,131.5c-0.8,0-1.5,0.7-1.5,1.5v12.7c0,0.8,0.7,1.5,1.5,1.5c0.8,0,1.5-0.7,1.5-1.5V133
			C145,132.2,144.3,131.5,143.5,131.5z M132.5,131.5c-0.8,0-1.5,0.7-1.5,1.5v12.7c0,0.8,0.7,1.5,1.5,1.5c0.8,0,1.5-0.7,1.5-1.5V133
			C134,132.2,133.4,131.5,132.5,131.5z M121.6,131.5c-0.8,0-1.5,0.7-1.5,1.5v12.7c0,0.8,0.7,1.5,1.5,1.5s1.5-0.7,1.5-1.5V133
			C123.1,132.2,122.4,131.5,121.6,131.5z M154.4,131.5c-0.8,0-1.5,0.7-1.5,1.5v12.7c0,0.8,0.7,1.5,1.5,1.5s1.5-0.7,1.5-1.5V133
			C156,132.2,155.3,131.5,154.4,131.5z M134,51V38.3c0-0.8-0.7-1.5-1.5-1.5c-0.8,0-1.5,0.7-1.5,1.5V51c0,0.8,0.7,1.5,1.5,1.5
			C133.4,52.5,134,51.8,134,51z M145,51V38.3c0-0.8-0.7-1.5-1.5-1.5c-0.8,0-1.5,0.7-1.5,1.5V51c0,0.8,0.7,1.5,1.5,1.5
			C144.3,52.5,145,51.8,145,51z M156,51V38.3c0-0.8-0.7-1.5-1.5-1.5c-0.8,0-1.5,0.7-1.5,1.5V51c0,0.8,0.7,1.5,1.5,1.5
			C155.3,52.5,156,51.8,156,51z M123.1,51V38.3c0-0.8-0.7-1.5-1.5-1.5s-1.5,0.7-1.5,1.5V51c0,0.8,0.7,1.5,1.5,1.5
			S123.1,51.8,123.1,51z M191.7,85H179c-0.8,0-1.5,0.7-1.5,1.5s0.7,1.5,1.5,1.5h12.7c0.8,0,1.5-0.7,1.5-1.5S192.5,85,191.7,85z
			 M191.7,96H179c-0.8,0-1.5,0.7-1.5,1.5s0.7,1.5,1.5,1.5h12.7c0.8,0,1.5-0.7,1.5-1.5S192.5,96,191.7,96z M191.7,106.9H179
			c-0.8,0-1.5,0.7-1.5,1.5c0,0.8,0.7,1.5,1.5,1.5h12.7c0.8,0,1.5-0.7,1.5-1.5C193.2,107.6,192.5,106.9,191.7,106.9z M191.7,74H179
			c-0.8,0-1.5,0.7-1.5,1.5s0.7,1.5,1.5,1.5h12.7c0.8,0,1.5-0.7,1.5-1.5S192.5,74,191.7,74z M97,96H84.3c-0.8,0-1.5,0.7-1.5,1.5
			s0.7,1.5,1.5,1.5H97c0.8,0,1.5-0.7,1.5-1.5S97.8,96,97,96z M97,85H84.3c-0.8,0-1.5,0.7-1.5,1.5s0.7,1.5,1.5,1.5H97
			c0.8,0,1.5-0.7,1.5-1.5C98.5,85.7,97.8,85,97,85z M97,74H84.3c-0.8,0-1.5,0.7-1.5,1.5s0.7,1.5,1.5,1.5H97c0.8,0,1.5-0.7,1.5-1.5
			S97.8,74,97,74z M97,106.9H84.3c-0.8,0-1.5,0.7-1.5,1.5c0,0.8,0.7,1.5,1.5,1.5H97c0.8,0,1.5-0.7,1.5-1.5
			C98.5,107.6,97.8,106.9,97,106.9z"/>
		<path id="svg_7" class="st8" d="M136.7,81.2L136.7,81.2c-0.3-0.8-1.3-1.1-2-1.1c-1,0-1.8,0.4-2,1.1l-5.5,18.1c0,0.1,0,0.2,0,0.3
			c0,0.8,1.1,1.4,2,1.4c0.8,0,1-0.4,1.2-0.7l1.1-3.9h6.7l1.1,3.9c0.1,0.5,0.5,0.7,1.1,0.7c0.9,0,2-0.6,2-1.4c0-0.1,0-0.2-0.1-0.3
			L136.7,81.2z M137.3,93.8h-5.2l2.6-9L137.3,93.8z M145.9,80.3c-0.9,0-1.5,0.4-1.5,1.1v18.5c0,0.6,0.6,1.1,1.5,1.1
			c0.9,0,1.5-0.4,1.5-1.1V81.3C147.4,80.7,146.8,80.3,145.9,80.3L145.9,80.3z"/>
	</g>
</g>
<g class="st2">
	<title>Layer 1</title>
	<path id="svg_1_2_" class="st9" d="M137.3,42.1c-30.5,0-55.2,24.7-55.2,55.2c0,24.4,15.8,45.1,37.7,52.4c2.8,0.5,3.8-1.2,3.8-2.6
		c0-1.3-0.1-5.7-0.1-10.3c-13.9,2.6-17.5-3.4-18.6-6.5c-0.6-1.6-3.3-6.5-5.7-7.8c-1.9-1-4.7-3.6-0.1-3.7c4.3-0.1,7.5,4,8.5,5.7
		c5,8.4,12.9,6,16.1,4.6c0.5-3.6,1.9-6,3.5-7.4c-12.3-1.4-25.1-6.1-25.1-27.3c0-6,2.1-11,5.7-14.8c-0.6-1.4-2.5-7,0.6-14.6
		c0,0,4.6-1.4,15.2,5.7c4.4-1.2,9.1-1.9,13.8-1.9c4.7,0,9.4,0.6,13.8,1.9c10.6-7.2,15.2-5.7,15.2-5.7c3,7.6,1.1,13.3,0.6,14.6
		c3.5,3.9,5.7,8.8,5.7,14.8c0,21.2-12.9,25.9-25.2,27.3c2,1.7,3.7,5,3.7,10.2c0,7.4-0.1,13.3-0.1,15.2c0,1.4,1,3.2,3.8,2.6
		c21.8-7.3,37.6-28,37.6-52.4C192.5,66.8,167.8,42.1,137.3,42.1L137.3,42.1z"/>
</g>
<g class="st2">
	<title>Layer 1</title>
	<path id="svg_1_3_" class="st10" d="M193.2,96c0,30.5-24.7,55.2-55.2,55.2S82.8,126.4,82.8,96s24.7-55.2,55.2-55.2
		c28.1,0,51.4,21.1,54.8,48.3c0.3,2,0.4,4,0.4,6C193.2,95.3,193.2,95.6,193.2,96z"/>
	<g id="svg_2_2_" class="st7">
		<path id="svg_3_2_" class="st11" d="M193.2,95c-4.7,5.7-14,5.3-14,5.3c-5.7,24.5-40.1,37-64,30.9c-23.9-6.1-20.6-34.6-20.6-34.6
			h69.9c5.8,0,6.2-1.8,6.2-1.8c-5.1-12.1,2.8-18.6,2.8-18.6c6.1,1.1,7.7,11.6,7.7,11.6c5-0.9,9.1,0.2,11.6,1.2
			C193,91,193.2,93,193.2,95L193.2,95z"/>
		<path id="svg_4_1_" class="st11" d="M102.1,85.5h9.8v8.9h-9.8C102.1,94.4,102.1,85.5,102.1,85.5z M114.4,85.5h9.8v8.9h-9.8V85.5z
			 M151.3,85.5h9.8v8.9h-9.8V85.5z M139,85.5h9.8v8.9H139L139,85.5L139,85.5z M139,62.7h9.8v8.9H139L139,62.7L139,62.7z M126.7,85.5
			h9.8v8.9h-9.8V85.5z M114.4,74.1h9.8V83h-9.8V74.1z M139,74.1h9.8V83H139L139,74.1L139,74.1z M126.7,74.1h9.8V83h-9.8V74.1z"/>
	</g>
</g>
<g>
	<title>Layer 1</title>
	<path id="svg_1_4_" class="st12" d="M82.8,36.8h110.4v110.4H82.8V36.8z"/>
	<path id="svg_2_3_" d="M157,123.1c2.2,3.6,5.1,6.3,10.2,6.3c4.3,0,7-2.1,7-5.1c0-3.6-2.8-4.8-7.6-6.9l-2.6-1.1
		c-7.5-3.2-12.5-7.2-12.5-15.6c0-7.8,5.9-13.7,15.2-13.7c6.6,0,11.3,2.3,14.8,8.3l-8.1,5.2c-1.8-3.2-3.7-4.4-6.7-4.4
		c-3,0-5,1.9-5,4.4c0,3.1,1.9,4.4,6.4,6.3l2.6,1.1c8.8,3.8,13.8,7.6,13.8,16.3c0,9.3-7.3,14.5-17.2,14.5c-9.6,0-15.9-4.6-18.9-10.6
		L157,123.1L157,123.1z M120.3,124c1.6,2.9,3.1,5.3,6.7,5.3c3.4,0,5.6-1.3,5.6-6.5V87.5h10.4v35.4c0,10.7-6.3,15.6-15.5,15.6
		c-8.3,0-13.1-4.3-15.6-9.5L120.3,124L120.3,124z"/>
</g>
</svg>
