<?xml version="1.0" encoding="utf-8"?>
<!-- Generator: Adobe Illustrator 23.0.0, SVG Export Plug-In . SVG Version: 6.00 Build 0)  -->
<svg version="1.1" id="a978fc2e-920b-46c5-ae3a-790f71ac8cb7"
	 xmlns="http://www.w3.org/2000/svg" xmlns:xlink="http://www.w3.org/1999/xlink" x="0px" y="0px" viewBox="0 0 276 184"
	 style="enable-background:new 0 0 276 184;" xml:space="preserve">
<style type="text/css">
	.st0{display:none;opacity:0.25;}
	.st1{fill:#989898;}
	.st2{display:none;}
	.st3{fill:#387EB8;}
	.st4{fill:#FFE052;}
	.st5{display:inline;fill:#F8EC7D;}
	.st6{display:inline;fill:#6FE3FF;}
	.st7{display:inline;}
	.st8{fill:#63316D;}
	.st9{display:none;fill-rule:evenodd;clip-rule:evenodd;fill:#1B1F23;}
	.st10{display:none;fill:#F05133;}
	.st11{fill:#FFFFFF;}
	.st12{fill:#F8BF11;}
</style>
<g class="st0">
	<path class="st1" d="M125.6,67.4c-5.6,0-10.1,4.5-10.1,10.1s4.5,10.1,10.1,10.1s10.1-4.5,10.1-10.1l0,0
		C135.7,72,131.2,67.5,125.6,67.4z M125.6,84.7c-4,0-7.2-3.2-7.2-7.2s3.2-7.2,7.2-7.2s7.2,3.2,7.2,7.2c0,0,0,0,0,0l0,0
		C132.8,81.5,129.6,84.7,125.6,84.7z"/>
	<path class="st1" d="M180.2,57.7H99.7c-3.2,0-5.8,2.6-5.8,5.8v56.1c0,3.2,2.6,5.7,5.8,5.8h80.5c3.2,0,5.7-2.6,5.8-5.8V63.5
		C185.9,60.3,183.3,57.7,180.2,57.7z M105.2,122.5h-5.5c-1.6,0-2.9-1.3-2.9-2.9v-13.3l0,0l13-13c1.1-1.1,2.9-1.1,4.1,0l10.3,10.3
		L105.2,122.5z M183,119.6c0,1.6-1.3,2.9-2.9,2.9h-70.9l2-2l15.9-15.9l1-1L154.7,77c0.5-0.5,1.2-0.8,2-0.8c0.8,0,1.5,0.3,2,0.8
		l24.3,24.3V119.6z M183,97.2L160.8,75c-2.2-2.2-5.9-2.2-8.1,0l0,0l-26.5,26.5l-10.3-10.3c-2.3-2.2-5.9-2.2-8.1,0l-11,11V63.5
		c0-1.6,1.3-2.9,2.9-2.9h80.5c1.6,0,2.9,1.3,2.9,2.9V97.2z"/>
</g>
<g class="st2">
	<title>Layer 1</title>
	<g id="svg_1">
		<path id="svg_2" class="st3" d="M139.5,37.1c-28,0-26.3,12.2-26.3,12.2v12.6H140v3.8h-37.4c0,0-17.9-2-17.9,26.2
			s15.7,27.3,15.7,27.3h9.3V106c0,0-0.5-15.7,15.4-15.7h26.5c0,0,14.9,0.2,14.9-14.4V51.7C166.6,51.7,168.8,37.1,139.5,37.1z
			 M124.8,45.5c2.7,0,4.8,2.2,4.8,4.8c0,2.7-2.2,4.8-4.8,4.8S120,53,120,50.4C120,47.7,122.1,45.5,124.8,45.5
			C124.8,45.5,124.8,45.5,124.8,45.5z"/>
		<path id="svg_3" class="st4" d="M140.3,146.9c28,0,26.3-12.2,26.3-12.2v-12.6h-26.8v-3.8h37.4c0,0,17.9,2,17.9-26.3
			s-15.7-27.3-15.7-27.3h-9.3V78c0,0,0.5,15.7-15.4,15.7h-26.5c0,0-14.9-0.2-14.9,14.4v24.2C113.3,132.3,111,146.9,140.3,146.9z
			 M155.1,138.5c-2.7,0-4.8-2.1-4.8-4.8c0-2.7,2.1-4.8,4.8-4.8s4.8,2.1,4.8,4.8c0,0,0,0,0,0C159.9,136.3,157.7,138.4,155.1,138.5
			C155.1,138.5,155.1,138.5,155.1,138.5z"/>
	</g>
</g>
<g class="st2">
	<title>Layer 1</title>
	<path id="svg_1_1_" class="st5" d="M171,66.7v50.7c0,4.2-3.4,7.6-7.6,7.6h-50.7c-4.2,0-7.6-3.4-7.6-7.6V66.7c0-4.2,3.4-7.6,7.6-7.6
		h50.7C167.5,59.1,171,62.5,171,66.7z M163.3,112.3V71.8c0-2.8-2.3-5.1-5.1-5.1h-40.6c-2.8,0-5.1,2.3-5.1,5.1v40.6
		c0,2.8,2.3,5.1,5.1,5.1h40.6C161.1,117.4,163.3,115.1,163.3,112.3z"/>
	<path id="svg_2_1_" class="st6" d="M163.3,71.8v40.6c0,2.8-2.3,5.1-5.1,5.1h-40.6c-2.8,0-5.1-2.3-5.1-5.1V71.8
		c0-2.8,2.3-5.1,5.1-5.1h40.6C161.1,66.7,163.3,69,163.3,71.8z"/>
	<path id="svg_3_1_" class="st6" d="M134.7,84.3l2.8,9.6h-5.6L134.7,84.3z"/>
	<g id="svg_4" class="st7">
		<path id="svg_5" class="st8" d="M158.3,65.2h-40.6c-3.6,0-6.6,3-6.6,6.6v40.6c0,3.6,3,6.6,6.6,6.6h40.6c3.6,0,6.6-3,6.6-6.6V71.8
			C164.9,68.1,161.9,65.2,158.3,65.2z M161.8,112.3c0,2-1.6,3.5-3.5,3.5h-40.6c-2,0-3.5-1.6-3.5-3.5V71.8c0-2,1.6-3.5,3.5-3.5h40.6
			c2,0,3.5,1.6,3.5,3.5V112.3z"/>
		<path id="svg_6" class="st8" d="M163.3,57.6h-50.7c-5,0-9.1,4.1-9.1,9.1v50.7c0,5,4.1,9.1,9.1,9.1h50.7c5,0,9.1-4.1,9.1-9.1V66.7
			C172.5,61.7,168.4,57.6,163.3,57.6z M169.4,117.4c0,3.4-2.7,6.1-6.1,6.1h-50.7c-3.4,0-6.1-2.7-6.1-6.1V66.7c0-3.4,2.7-6.1,6.1-6.1
			h50.7c3.4,0,6.1,2.7,6.1,6.1V117.4z M143.5,131.5c-0.8,0-1.5,0.7-1.5,1.5v12.7c0,0.8,0.7,1.5,1.5,1.5c0.8,0,1.5-0.7,1.5-1.5V133
			C145,132.2,144.3,131.5,143.5,131.5z M132.5,131.5c-0.8,0-1.5,0.7-1.5,1.5v12.7c0,0.8,0.7,1.5,1.5,1.5c0.8,0,1.5-0.7,1.5-1.5V133
			C134,132.2,133.4,131.5,132.5,131.5z M121.6,131.5c-0.8,0-1.5,0.7-1.5,1.5v12.7c0,0.8,0.7,1.5,1.5,1.5s1.5-0.7,1.5-1.5V133
			C123.1,132.2,122.4,131.5,121.6,131.5z M154.4,131.5c-0.8,0-1.5,0.7-1.5,1.5v12.7c0,0.8,0.7,1.5,1.5,1.5s1.5-0.7,1.5-1.5V133
			C156,132.2,155.3,131.5,154.4,131.5z M134,51V38.3c0-0.8-0.7-1.5-1.5-1.5c-0.8,0-1.5,0.7-1.5,1.5V51c0,0.8,0.7,1.5,1.5,1.5
			C133.4,52.5,134,51.8,134,51z M145,51V38.3c0-0.8-0.7-1.5-1.5-1.5c-0.8,0-1.5,0.7-1.5,1.5V51c0,0.8,0.7,1.5,1.5,1.5
			C144.3,52.5,145,51.8,145,51z M156,51V38.3c0-0.8-0.7-1.5-1.5-1.5c-0.8,0-1.5,0.7-1.5,1.5V51c0,0.8,0.7,1.5,1.5,1.5
			C155.3,52.5,156,51.8,156,51z M123.1,51V38.3c0-0.8-0.7-1.5-1.5-1.5s-1.5,0.7-1.5,1.5V51c0,0.8,0.7,1.5,1.5,1.5
			S123.1,51.8,123.1,51z M191.7,85H179c-0.8,0-1.5,0.7-1.5,1.5s0.7,1.5,1.5,1.5h12.7c0.8,0,1.5-0.7,1.5-1.5S192.5,85,191.7,85z
			 M191.7,96H179c-0.8,0-1.5,0.7-1.5,1.5s0.7,1.5,1.5,1.5h12.7c0.8,0,1.5-0.7,1.5-1.5S192.5,96,191.7,96z M191.7,106.9H179
			c-0.8,0-1.5,0.7-1.5,1.5c0,0.8,0.7,1.5,1.5,1.5h12.7c0.8,0,1.5-0.7,1.5-1.5C193.2,107.6,192.5,106.9,191.7,106.9z M191.7,74H179
			c-0.8,0-1.5,0.7-1.5,1.5s0.7,1.5,1.5,1.5h12.7c0.8,0,1.5-0.7,1.5-1.5S192.5,74,191.7,74z M97,96H84.3c-0.8,0-1.5,0.7-1.5,1.5
			s0.7,1.5,1.5,1.5H97c0.8,0,1.5-0.7,1.5-1.5S97.8,96,97,96z M97,85H84.3c-0.8,0-1.5,0.7-1.5,1.5s0.7,1.5,1.5,1.5H97
			c0.8,0,1.5-0.7,1.5-1.5C98.5,85.7,97.8,85,97,85z M97,74H84.3c-0.8,0-1.5,0.7-1.5,1.5s0.7,1.5,1.5,1.5H97c0.8,0,1.5-0.7,1.5-1.5
			S97.8,74,97,74z M97,106.9H84.3c-0.8,0-1.5,0.7-1.5,1.5c0,0.8,0.7,1.5,1.5,1.5H97c0.8,0,1.5-0.7,1.5-1.5
			C98.5,107.6,97.8,106.9,97,106.9z"/>
		<path id="svg_7" class="st8" d="M136.7,81.2L136.7,81.2c-0.3-0.8-1.3-1.1-2-1.1c-1,0-1.8,0.4-2,1.1l-5.5,18.1c0,0.1,0,0.2,0,0.3
			c0,0.8,1.1,1.4,2,1.4c0.8,0,1-0.4,1.2-0.7l1.1-3.9h6.7l1.1,3.9c0.1,0.5,0.5,0.7,1.1,0.7c0.9,0,2-0.6,2-1.4c0-0.1,0-0.2-0.1-0.3
			L136.7,81.2z M137.3,93.8h-5.2l2.6-9L137.3,93.8z M145.9,80.3c-0.9,0-1.5,0.4-1.5,1.1v18.5c0,0.6,0.6,1.1,1.5,1.1
			c0.9,0,1.5-0.4,1.5-1.1V81.3C147.4,80.7,146.8,80.3,145.9,80.3L145.9,80.3z"/>
	</g>
</g>
<g>
	<title>Layer 1</title>
	<path id="svg_1_2_" class="st9" d="M137.3,42.1c-30.5,0-55.2,24.7-55.2,55.2c0,24.4,15.8,45.1,37.7,52.4c2.8,0.5,3.8-1.2,3.8-2.6
		c0-1.3-0.1-5.7-0.1-10.3c-13.9,2.6-17.5-3.4-18.6-6.5c-0.6-1.6-3.3-6.5-5.7-7.8c-1.9-1-4.7-3.6-0.1-3.7c4.3-0.1,7.5,4,8.5,5.7
		c5,8.4,12.9,6,16.1,4.6c0.5-3.6,1.9-6,3.5-7.4c-12.3-1.4-25.1-6.1-25.1-27.3c0-6,2.1-11,5.7-14.8c-0.6-1.4-2.5-7,0.6-14.6
		c0,0,4.6-1.4,15.2,5.7c4.4-1.2,9.1-1.9,13.8-1.9c4.7,0,9.4,0.6,13.8,1.9c10.6-7.2,15.2-5.7,15.2-5.7c3,7.6,1.1,13.3,0.6,14.6
		c3.5,3.9,5.7,8.8,5.7,14.8c0,21.2-12.9,25.9-25.2,27.3c2,1.7,3.7,5,3.7,10.2c0,7.4-0.1,13.3-0.1,15.2c0,1.4,1,3.2,3.8,2.6
		c21.8-7.3,37.6-28,37.6-52.4C192.5,66.8,167.8,42.1,137.3,42.1L137.3,42.1z"/>
</g>
<path class="st10" d="M192.5,90.8l-49.7-49.7c-2.9-2.9-7.5-2.9-10.4,0l-10.3,10.3l13.1,13.1c3-1,6.5-0.3,9,2.1c2.4,2.4,3.1,6,2.1,9
	l12.6,12.6c3.1-1.1,6.6-0.4,9,2.1c3.4,3.4,3.4,8.9,0,12.3c-3.4,3.4-8.9,3.4-12.3,0c-2.6-2.6-3.2-6.3-1.9-9.5l-11.8-11.8l0,31
	c0.8,0.4,1.6,1,2.3,1.7c3.4,3.4,3.4,8.9,0,12.3c-3.4,3.4-8.9,3.4-12.3,0c-3.4-3.4-3.4-8.9,0-12.3c0.8-0.8,1.8-1.5,2.9-1.9V80.8
	c-1-0.4-2-1.1-2.9-1.9c-2.6-2.6-3.2-6.4-1.9-9.5L117,56.5L82.9,90.6c-2.9,2.9-2.9,7.5,0,10.4l49.7,49.7c2.9,2.9,7.5,2.9,10.4,0
	l49.5-49.5C195.4,98.3,195.4,93.7,192.5,90.8"/>
<g>
	<title>Layer 1</title>
	<path id="svg_1_3_" class="st11" d="M136.9,35c-3.1,0-3.6,0-5.7,0.6c-2.6,0.7-4,1.5-5.8,3.3c-0.9,0.9-1.3,1.4-1.8,2.1
		c-1.1,1.8-1.8,3.9-2.2,6.7c-0.2,1.4-0.3,1.9-0.2,5.3c0,3.6,0.4,14.5,0.7,17.8c0.2,2.2,0.1,2.4-1.7,4.9c-0.6,0.9-1.5,2.2-2,2.9
		c-1.2,1.9-2.9,4.3-4.4,6.1c-2.6,3.4-3.3,4.6-4.9,9.1c-1.6,4.4-2.6,6.5-4.9,11.1c-1.2,2.3-1.5,3.2-1.6,4.9c-0.1,1.4,0.1,3.3,0.3,3.7
		c0.2,0.2,0.4,0.3,0.8,0.2c-0.1,0.1-0.1,0.1-0.1,0.1c-0.7,0.4-1.5,1.4-1.9,2.6c0,0,0,0.1,0,0.1c-0.2,0.3-0.4,0.7-0.6,1.5
		c-0.7,2-1.3,2.8-2.3,3.4c-0.9,0.5-1.7,0.6-4,0.6c-2.4,0-2.9,0.1-3.6,0.7c-1.3,1.1-1.5,3.2-0.6,6.2c0.8,2.7,0.8,3.9-0.3,6.9
		c-0.6,1.7-0.6,2-0.6,2.7c0,0.5,0.1,0.9,0.2,1.2c0.3,0.5,1,1.2,1.8,1.5c0.9,0.3,5.2,1.4,8.4,2c4.9,1,6.6,1.5,11.1,3.3
		c4,1.6,5.7,2.2,7.1,2.4c0.6,0.1,2,0,2.6-0.3c0.7-0.3,1.4-0.7,2.9-2c2.6-2.2,4.1-2.9,7-3.4c1.1-0.2,2.1-0.2,10.5-0.2
		c5.1,0,9.6,0,10,0.1c0.9,0.1,1.3,0.4,2.1,1.8c1.2,2.2,2.7,3.2,5.4,3.6c1.3,0.2,3.5,0.2,4.5,0.1c2.2-0.4,3.3-1,5.8-3.5
		c2.9-2.9,5.6-4.8,9.4-6.4c1.9-0.9,2.8-1.3,5.1-2.9c2.8-1.9,3.3-2.5,3.3-3.7c0-1.3-0.7-2.1-3.3-3.8c-2.5-1.6-3.6-2.6-4.6-4.1
		c-0.7-1.1-1-1.9-1.1-3.5c0-0.7-0.1-1.2-0.2-1.5c-0.1-1.1-0.5-2.4-1.3-2.8c-1.1-0.6-1.5-0.4-1.9-0.2c1.2-1.4,1.6-2,2-3.2
		c0.7-2.1,0.6-4.5-0.7-10.7c-1.4-7.2-3.9-12.3-8.9-18.8c-3.2-4.1-4.5-6.2-7.6-12c-1.5-2.9-2-3.9-2.4-5.5c-0.5-2.3-0.8-4.3-1.2-10.1
		c-0.4-5.4-0.7-7.6-1.2-9.5c-1.3-5.1-5.3-9-10.9-10.6C141.1,35.2,140.1,35,136.9,35L136.9,35z"/>
	<path id="svg_2_2_" class="st12" d="M148.7,67c0,2.7-3.2,3.3-4.8,4.2c-1.5,1.3-9.8,5.1-12,5.1c-3.6-0.8-7.9-6.1-8.4-9.6
		c0-2.1,2.6-3.7,4.1-5c1.5-1.3,3.1-2.6,6-2.1c2.2,0,5.7,1.1,7.1,2.4C143.6,63,148.7,63.6,148.7,67L148.7,67z M90.2,139
		c3.3,1.5,11,3.4,13.7,3.7c1.8,0.8,13.8,3.5,16.6,3.5c4.1-2.9,4.8-7.3,3.6-11.7c-5.1-8.2-9-19-18.6-22.8c-1,0.5-1.7,1.8-2.1,2
		c-0.7,0.4-1.5,1.4-1.9,2.6c-0.5,1.2-1,2.8-1.5,5c-1.1,2.2-5.6,0.2-8.7,1.8C90.2,126.6,92.1,135,90.2,139L90.2,139z M179.1,126.4
		c2.1,1.7,5.3,2.9,6.8,5.7c-2.8,3.3-5.2,4.5-8.7,6.2c-4.8,2.3-7.9,4.5-10.1,6c-2.2,1.9-7.4,3.1-9.7,2.8c-1.5-1-3.1-12.7-2.6-16.6
		c0-2-2.5-10.2,1.5-15.2c3.9-0.7,7.2,2.8,9.7,5.2c2-1.4,5.2-3.5,7.7-4c0.8-0.2,0.8-1,2.5-0.1c0.8,0.4,1.3,1.7,1.3,2.8
		C177.6,121.1,177.8,124.9,179.1,126.4L179.1,126.4z"/>
	<path id="svg_3_2_" d="M118,148.9c-1.4-0.2-3.1-0.8-7.1-2.4c-4.5-1.8-6.2-2.3-11.1-3.3c-3.1-0.5-7.5-1.7-8.4-2
		c-0.8-0.3-1.6-1-1.8-1.5c-0.1-0.2-0.2-0.7-0.2-1.2c0-0.7,0.1-1.1,0.6-2.7c1-3,1.1-4.3,0.3-7c-0.9-3-0.7-5.1,0.6-6.2
		c0.7-0.6,1.2-0.7,3.6-0.7c2.3,0,3.1-0.1,4-0.6c1-0.6,1.6-1.4,2.3-3.4c0.4-1.3,0.7-1.8,1-1.8c0.2,0,0.4,0.6,0.4,1.2
		c0,0.6-0.7,3.1-1,3.8c-0.4,0.7-0.8,1.3-1.4,1.6c-1,0.6-3,0.8-5.2,0.4c-1.4-0.2-2.2-0.2-2.7,0.2c-0.8,0.5-0.9,1.6-0.3,2.9
		c1.1,2.6,1.3,3.1,1.6,4c0.3,1,0.3,2,0.2,3c-0.2,1.1-0.5,1.8-1.4,3c-0.5,0.7-0.9,1.4-1,1.6c-0.2,0.6,0.1,1,0.7,1.4
		c0.5,0.3,8.3,2.3,13.8,3.5c1.7,0.4,4.8,1.2,6.8,1.7c2.1,0.5,4.2,1,4.8,1.1c1.7,0.2,3.3,0,4.4-0.6c1.5-1,2.6-3.2,2.7-5.8
		c0.1-1.7-0.3-3.2-1.3-5.2c-0.8-1.5-1.1-2.1-4.8-7.6c-6.4-9.6-9.2-12.8-11.5-13.3c-0.8-0.2-1.3-0.1-2.3,0.4c-1,0.4-1.3,0.5-1.5,0.1
		c-0.2-0.3-0.4-2.3-0.3-3.7c0.1-1.6,0.4-2.6,1.6-4.9c2.3-4.5,3.3-6.7,4.9-11.1c1.6-4.5,2.3-5.7,4.9-9.1c1.4-1.8,3.1-4.3,4.4-6.1
		c0.5-0.7,1.4-2,2-2.9c1.8-2.5,1.9-2.8,1.7-4.9c-0.3-3.3-0.7-14.2-0.7-17.7c0-3.4,0-3.9,0.2-5.3c0.4-2.8,1.1-4.9,2.2-6.7
		c0.4-0.7,0.9-1.3,1.7-2.2c1.7-1.8,3.2-2.6,5.8-3.3c2.1-0.5,2.6-0.6,5.7-0.6c3.2,0,4.2,0.1,6.6,0.8c5.6,1.6,9.6,5.5,10.9,10.6
		c0.5,1.9,0.8,4.1,1.1,9.5c0.4,5.8,0.7,7.8,1.2,10.1c0.4,1.5,0.8,2.6,2.4,5.5c3.1,5.8,4.4,7.9,7.6,12c5,6.5,7.5,11.6,8.9,18.8
		c1.2,6.2,1.4,8.6,0.7,10.7c-0.4,1.3-0.8,1.9-2.3,3.6c-3.1,3.4-6.5,5.6-8.9,5.6c-2.2,0-4.1-1.5-5.5-4.1c-0.7-1.5-0.6-2.6-2.5-2.2
		c-0.9,0.2-1.7,1.4-1.9,2.8c-0.2,1-0.1,4.9,0,5.9c0.1,0.4,0.3,1.8,0.5,2.9c0.4,2,0.4,2.2,0.4,4.2c0,1.9,0,2.5-0.4,4.5
		c-0.3,1.9-0.3,2.6-0.3,3.7c0,1.2,0.1,1.3,0.4,2.1c0.4,1,1.4,2,2.2,2.6c1.8,1.2,4.4,1.3,6.6,0.2c0.6-0.3,1.5-1,3-2.1
		c2.4-2,4.3-3.2,5.6-3.9c0.5-0.3,1.8-0.7,2.8-1.1c4.2-1.4,6.2-2.2,7.2-3.1c1.3-1,1.9-2.2,1.7-3c-0.3-1.1-1.5-1.8-4-2.5
		c-1.9-0.5-2.3-0.7-3.1-1.6c-0.7-0.7-1.2-1.8-1.6-3.2c-0.4-1.4-0.4-3.6-0.1-4.5c0.2-0.6,0.5-0.9,0.7-0.9c0.3,0,0.5,0.5,0.5,1.9
		c0.1,1.6,0.4,2.4,1.1,3.5c1,1.5,2.1,2.5,4.6,4.1c2.6,1.7,3.3,2.5,3.3,3.8c0,1.2-0.5,1.8-3.3,3.7c-2.3,1.5-3.1,2-5.1,2.9
		c-3.8,1.7-6.5,3.5-9.4,6.4c-2.5,2.5-3.6,3.2-5.8,3.5c-1,0.1-3.2,0.1-4.5-0.1c-2.7-0.3-4.2-1.3-5.4-3.5c-0.8-1.4-1.2-1.7-2.1-1.8
		c-0.4,0-4.9-0.1-10-0.1c-8.4,0-9.4,0.1-10.5,0.2c-2.9,0.5-4.4,1.2-7,3.3c-1.5,1.3-2.2,1.7-2.9,2C119.9,148.9,118.6,149,118,148.9
		L118,148.9L118,148.9z M127.7,142c0.2-0.2,0.6-0.7,0.8-1.1c0.3-0.6,0.4-0.8,0.4-1.7c0.1-1.7-0.3-2.7-1.5-3.9
		c-0.8-0.9-0.9-1.2-0.5-1.5c0.4-0.2,1,0.1,2,0.9c1.9,1.6,3,1.9,7.1,1.8c4.4-0.1,6.9-0.6,9.3-1.8c1.6-0.8,2.6-1.7,3.9-3.5
		c0.9-1.2,1.4-1.6,1.9-1.9c0.9-0.4,1.3,0.3,1.3,2c0,0.8-0.1,1.3-0.5,2.6c-1,3.5-1.3,5.5-1,6.5c0.2,0.6,0.7,1,1.1,1
		c0.3,0,0.3-0.1,0.4-0.7c0-0.4,0.2-1.6,0.4-2.7c0.2-1.1,0.4-2.6,0.5-3.2c0.2-1.7,0.4-7,0.4-12.7c0-4.9,0-4.9,0.3-5.7
		c0.2-0.6,0.4-0.9,0.8-1.3c0.7-0.6,1.3-0.9,2.7-1l0.9-0.1l0.1-0.7c0.3-1.5,1.2-2.3,3-2.8c0.6-0.2,1.1-0.2,2.4-0.2
		c1.8,0,2.3,0.1,3.9,0.9c0.7,0.3,1.3,0.5,1.3,0.3c0-0.2-0.9-1-1.6-1.5c-0.4-0.3-1-0.6-1.4-0.8c-0.5-0.2-0.8-0.4-0.8-0.5
		c0-0.1,0.1-0.8,0.4-1.6c0.6-2.3,0.8-3.7,0.8-5.8c0-3.5-0.6-5.9-2.7-9.8c-1.9-3.7-3.9-6.4-5.5-7.4c-0.5-0.3-1-0.5-1-0.4
		c0,0,0.4,0.6,0.8,1.3c2.2,3.1,4.5,7.1,5.4,9.5c0.8,1.9,1.4,4.6,1.6,6.9c0.3,3.9-0.8,7.3-2.6,8.1c-0.4,0.2-0.8,0.2-1.7,0.3
		c-1.4,0.1-1.6,0-2-0.8l-0.3-0.5l-0.1-4.3c-0.1-7.3-0.5-8.6-4.3-15.5c-1.2-2.1-1.4-2.7-1.9-4.6c-1-4-2-6.3-3.6-8.4
		c-2.4-3.2-2.7-4.5-1.8-7.5c0.6-1.9,0.6-2.9,0-3.6c-0.5-0.5-0.8-0.7-3-1.3c-3.3-1-4.8-2-5.2-3.2c-0.4-1.2-0.1-3.2,0.6-4.2
		c0.5-0.7,1.2-1,2.3-1c0.7,0,1,0.1,1.5,0.3c0.7,0.4,1.3,0.9,1.6,1.4c0.3,0.6,0.3,2.1,0,3.1c-0.5,1.7-0.5,1.5-0.1,1.9
		c0.7,0.6,1.8,0.7,2.3,0.1c0.4-0.5,0.5-1,0.6-2.4c0.1-1.5-0.1-2.6-0.7-4.5c-0.9-2.7-1.7-3.4-4.4-3.9c-2-0.3-3-0.1-4,1
		c-1.5,1.6-2.3,4.2-2,6.8c0.2,1.4,0.1,1.5-0.7,1.2c-0.7-0.2-2.3-0.4-3.2-0.4c-1,0-1.1,0-1.1-1.1c0-4.5-1.4-6.9-3.8-6.9
		c-1.7,0-3.1,1.3-3.6,3.4c-0.2,0.8-0.2,3.1,0.1,4.5c0.5,2.6,1.5,4,2.2,2.9c0.3-0.4,0.6-1,0.6-1.2c0-0.1-0.2-0.2-0.5-0.4
		c-0.3-0.2-0.6-0.4-0.7-0.6c-0.6-1-0.9-2.7-0.7-3.7c0.3-1.2,2-1.9,3.1-1.4c0.9,0.5,2,2.5,1.8,3.8c-0.1,1-0.3,1.4-1.2,2.1
		c-0.5,0.3-1.2,1-1.7,1.4s-1.1,0.9-1.3,1.1c-1.2,0.9-1.9,1.9-1.9,2.9c0,0.6,0.3,1,1.1,1.4c0.6,0.3,1.2,0.9,1.8,1.8
		c0.8,1.2,1.8,1.5,4,1.5c2.7,0,5.1-0.6,9.6-2.3c2.4-0.9,3.1-1.2,3.3-1.4c0.4-0.6,0.9-1,1.1-1c0.4,0,0.7,0.4,0.7,0.7
		c0,0.7-1,1.2-4.5,2.4c-1,0.4-2.6,1-3.5,1.4c-1.8,0.9-2.4,1.1-3.6,1.3c-1,0.2-3.3,0.2-4.6,0c-1-0.1-1.7-0.1-1.6,0.2
		c0.1,0.3,2.4,2.1,3,2.3c0.8,0.3,2.3,0.3,3.3,0.1c1.5-0.3,6.2-2.4,8.6-3.7c0.8-0.4,1.2-0.6,1.5-0.6c0.5,0,0.8,0.3,0.8,0.7
		c0,0.4-0.8,1.1-1.7,1.5c-1.5,0.6-1.9,0.8-3.4,1.8c-2.1,1.3-3,2-4.4,3.2c-1.5,1.3-1.9,1.5-3.5,1.5c-1.3,0-1.7-0.1-2.5-0.8
		c-0.7-0.6-2.3-2.5-2.7-3.4c-0.5-0.9-1.5-2.1-1.8-2.1c-0.2,0-0.2,0-0.5,1.4c-0.2,1-1,2.8-2.3,5.3c-1.5,3-1.6,3.3-1.6,6.5
		c0,2.7,0.1,2.4-1.2,4.2c-1.6,2.2-4.1,8.1-4.7,11c-0.5,2.2-0.8,6-0.7,8.1c0.1,1.7,0,2.2-0.4,2.4c-0.4,0.3-0.9,0-1.9-1
		c-1.6-1.6-2.1-2.9-2.1-5.4c0-1.6,0.2-2.8,0.5-4c0.3-1,0.3-1.3,0-1.2c-0.3,0-0.8,1.2-1.1,2.3c-0.2,0.6-0.2,1.3-0.3,2.6
		c0,1.6,0,1.9,0.2,3c0.3,1.4,0.9,2.8,1.8,3.9c1.3,1.7,7.9,7.6,12.3,10.9c1.1,0.8,2.2,1.8,2.6,2.2c2.3,2.5,1.9,4.8-1.3,6.6
		c-0.5,0.3-0.9,0.5-0.9,0.5s0.4,0.6,0.9,1.2c1.8,2.5,2.9,4.2,3.2,5.5c0.2,0.8,0.2,2,0,2.8c-0.1,0.3-0.2,0.6-0.1,0.6
		C127.2,142.3,127.4,142.1,127.7,142L127.7,142z M129.5,62c-0.3-0.6,0.3-1.2,1.4-1.2c0.4,0,0.7,0,0.7,0.1c0.1,0.1-0.3,0.3-0.6,0.3
		c-0.2,0-0.3,0.1-0.5,0.5c-0.2,0.4-0.3,0.5-0.6,0.5C129.7,62.2,129.6,62.1,129.5,62L129.5,62z M135.9,61.5c-0.6-0.2-1.1-0.5-1-0.7
		c0,0,0.4-0.1,0.8-0.1c1-0.1,1.3,0.1,1.3,0.5c0,0.2-0.1,0.4-0.2,0.4c-0.1,0.1-0.2,0.1-0.2,0.1C136.6,61.7,136.2,61.6,135.9,61.5
		L135.9,61.5z M113.5,91.6c1-1.1,1.3-1.6,1.3-2.4c0-0.5-0.2-0.7-0.7-0.6c-0.3,0.1-0.5,0.4-0.8,1.4c-0.1,0.5-0.3,0.8-0.8,1.3
		c-0.6,0.7-0.7,0.9-0.5,1.1C112.4,92.7,112.6,92.6,113.5,91.6z M154.8,73.5c0.2-0.1,0.7-1.2,0.7-1.7c0-0.3-0.1-0.5-0.3-0.7
		c-0.2-0.2-0.4-0.3-0.4-0.3c-0.1,0-0.5-0.2-0.9-0.4c-0.6-0.3-1.1-0.6-1.5-1.1c-0.4-0.4-0.8-0.7-0.8-0.7s-0.2,0.1-0.2,0.3
		c-0.1,0.5,0.1,1.3,0.5,2.2c0.4,0.8,0.5,1,1.4,1.7C154.1,73.5,154.5,73.7,154.8,73.5L154.8,73.5z M129,59.1c0.1-0.3,0.1-0.6-0.2-1.7
		c-0.1-0.5-0.3-0.9-0.6-1.1c-0.3-0.3-0.4-0.4-0.6-0.2c-0.4,0.2-0.3,0.6,0.1,1.1c0.3,0.4,0.6,1,0.7,1.8
		C128.5,59.5,128.8,59.5,129,59.1z M144.1,58.8c0.2-0.3,0.1-1.6-0.3-2.1c-0.3-0.5-1.1-1-1.7-1c-0.4-0.1-0.5,0-0.6,0.2
		c-0.2,0.3-0.1,0.4,0.5,0.5c0.7,0.2,1.3,1.1,1.4,2.1c0.1,0.4,0.1,0.5,0.3,0.5C143.9,58.9,144.1,58.9,144.1,58.8z M144.8,44.3
		c0.8-0.5,0.8-0.6,1.6-0.6c0.9,0,1.2-0.1,1.2-0.4c0-0.5-1.8-2.1-2.5-2.2c-0.8-0.1-1,0.3-1.2,1.8c-0.1,0.6-0.1,0.8-0.4,1.1
		c-0.3,0.4-0.4,0.7-0.2,0.9C143.5,45.1,144,44.9,144.8,44.3z"/>
</g>
</svg>
