<svg id="a978fc2e-920b-46c5-ae3a-790f71ac8cb7" data-name="eca93167-b903-4ef9-ad04-abb656f1ee0c" xmlns="http://www.w3.org/2000/svg" viewBox="0 0 276 184"><g opacity="0.25"><path d="M125.61,67.45a10.08,10.08,0,1,0,10.08,10.08h0A10.09,10.09,0,0,0,125.61,67.45Zm0,17.27a7.2,7.2,0,1,1,7.2-7.2h0A7.22,7.22,0,0,1,125.61,84.72Z" fill="#989898"/><path d="M180.16,57.73H99.67a5.76,5.76,0,0,0-5.75,5.76v56.14a5.77,5.77,0,0,0,5.75,5.75h80.49a5.78,5.78,0,0,0,5.76-5.75V63.49A5.77,5.77,0,0,0,180.16,57.73Zm-75,64.78h-5.5a2.89,2.89,0,0,1-2.88-2.88V106.3h0l13-13a2.89,2.89,0,0,1,4.07,0l10.25,10.26ZM183,119.63a2.89,2.89,0,0,1-2.88,2.88H109.24l2-2,15.94-15.93,1-1L154.72,77a2.88,2.88,0,0,1,2-.84,2.81,2.81,0,0,1,2,.85L183,101.27Zm0-22.43L160.83,75a5.75,5.75,0,0,0-8.13,0h0l-26.52,26.52L115.91,91.25a5.77,5.77,0,0,0-8.14,0l-11,11V63.49a2.89,2.89,0,0,1,2.88-2.88h80.49A2.88,2.88,0,0,1,183,63.49Z" fill="#989898"/></g></svg>