<?xml version="1.0" encoding="utf-8"?>
<!-- Generator: Adobe Illustrator 23.0.0, SVG Export Plug-In . SVG Version: 6.00 Build 0)  -->
<svg version="1.1" id="a978fc2e-920b-46c5-ae3a-790f71ac8cb7"
	 xmlns="http://www.w3.org/2000/svg" xmlns:xlink="http://www.w3.org/1999/xlink" x="0px" y="0px" viewBox="0 0 276 184"
	 style="enable-background:new 0 0 276 184;" xml:space="preserve">
<style type="text/css">
	.st0{display:none;opacity:0.25;}
	.st1{display:inline;fill:#989898;}
	.st2{fill:#387EB8;}
	.st3{fill:#FFE052;}
</style>
<g class="st0">
	<path class="st1" d="M125.6,67.4c-5.6,0-10.1,4.5-10.1,10.1s4.5,10.1,10.1,10.1s10.1-4.5,10.1-10.1l0,0
		C135.7,72,131.2,67.5,125.6,67.4z M125.6,84.7c-4,0-7.2-3.2-7.2-7.2s3.2-7.2,7.2-7.2s7.2,3.2,7.2,7.2c0,0,0,0,0,0l0,0
		C132.8,81.5,129.6,84.7,125.6,84.7z"/>
	<path class="st1" d="M180.2,57.7H99.7c-3.2,0-5.8,2.6-5.8,5.8v56.1c0,3.2,2.6,5.7,5.8,5.8h80.5c3.2,0,5.7-2.6,5.8-5.8V63.5
		C185.9,60.3,183.3,57.7,180.2,57.7z M105.2,122.5h-5.5c-1.6,0-2.9-1.3-2.9-2.9v-13.3l0,0l13-13c1.1-1.1,2.9-1.1,4.1,0l10.3,10.3
		L105.2,122.5z M183,119.6c0,1.6-1.3,2.9-2.9,2.9h-70.9l2-2l15.9-15.9l1-1L154.7,77c0.5-0.5,1.2-0.8,2-0.8c0.8,0,1.5,0.3,2,0.8
		l24.3,24.3V119.6z M183,97.2L160.8,75c-2.2-2.2-5.9-2.2-8.1,0l0,0l-26.5,26.5l-10.3-10.3c-2.3-2.2-5.9-2.2-8.1,0l-11,11V63.5
		c0-1.6,1.3-2.9,2.9-2.9h80.5c1.6,0,2.9,1.3,2.9,2.9V97.2z"/>
</g>
<g>
	<title>Layer 1</title>
	<g id="svg_1">
		<path id="svg_2" class="st2" d="M139.5,37.1c-28,0-26.3,12.2-26.3,12.2v12.6H140v3.8h-37.4c0,0-17.9-2-17.9,26.2
			s15.7,27.3,15.7,27.3h9.3V106c0,0-0.5-15.7,15.4-15.7h26.5c0,0,14.9,0.2,14.9-14.4V51.7C166.6,51.7,168.8,37.1,139.5,37.1z
			 M124.8,45.5c2.7,0,4.8,2.2,4.8,4.8c0,2.7-2.2,4.8-4.8,4.8S120,53,120,50.4C120,47.7,122.1,45.5,124.8,45.5
			C124.8,45.5,124.8,45.5,124.8,45.5z"/>
		<path id="svg_3" class="st3" d="M140.3,146.9c28,0,26.3-12.2,26.3-12.2v-12.6h-26.8v-3.8h37.4c0,0,17.9,2,17.9-26.3
			s-15.7-27.3-15.7-27.3h-9.3V78c0,0,0.5,15.7-15.4,15.7h-26.5c0,0-14.9-0.2-14.9,14.4v24.2C113.3,132.3,111,146.9,140.3,146.9z
			 M155.1,138.5c-2.7,0-4.8-2.1-4.8-4.8c0-2.7,2.1-4.8,4.8-4.8s4.8,2.1,4.8,4.8c0,0,0,0,0,0C159.9,136.3,157.7,138.4,155.1,138.5
			C155.1,138.5,155.1,138.5,155.1,138.5z"/>
	</g>
</g>
</svg>
