<svg id="aba6cb34-cb03-4b54-ad89-0b28296ca10e" data-name="Layer 1" xmlns="http://www.w3.org/2000/svg" viewBox="0 0 761.69 587.08"><defs><style>.b7cb89da-474f-444a-9a41-b60d52377202{fill:#202020;}.e8f6674f-b466-4478-857e-da0ac70cb590{fill:#5fff5f;}.b923ae74-58ed-49ab-a2f7-d5849a25dc50{fill:#5fffff;}.bf676bcf-cebd-4d9d-aa98-05a70198d908{fill:#fff;}.f4810b1c-9b84-4d85-9a50-6c1bce0e1359{fill:#dfdfdf;}.e0dd8e80-4f04-4091-a133-62bd95d3e14c{fill:#303030;}.efc8193d-bc7b-4dad-b542-bec3b25c0d8d{fill:#ff30ff;}</style></defs><title>triode-logo</title><path class="b7cb89da-474f-444a-9a41-b60d52377202" d="M254.55,900h-21.1V877.59h21.1Z" transform="translate(-130.31 -340.05)"/><path class="b7cb89da-474f-444a-9a41-b60d52377202" d="M186.71,900h-21.1V877.59h21.1Z" transform="translate(-130.31 -340.05)"/><path class="e8f6674f-b466-4478-857e-da0ac70cb590" d="M165.27,722.43h-21.1V700l10.65,11.15Z" transform="translate(-130.31 -340.05)"/><path class="b7cb89da-474f-444a-9a41-b60d52377202" d="M186.39,833.48h68.16v22.23H151.28V833.48h14V810.89h21.1Z" transform="translate(-130.31 -340.05)"/><path class="b7cb89da-474f-444a-9a41-b60d52377202" d="M186.39,766.78h68.16V789H165.29V744.37h21.1Z" transform="translate(-130.31 -340.05)"/><polygon class="e8f6674f-b466-4478-857e-da0ac70cb590" points="124.25 382.44 124.25 360.21 34.98 360.21 56.17 382.38 124.25 382.44"/><path class="e8f6674f-b466-4478-857e-da0ac70cb590" d="M232,589.3h5.23c6.53,0,10.45,1.31,13.25,4.67a18.61,18.61,0,0,1,3.74,9c.37,3.36.37,5.6.37,13.82v34c0,12.89-.37,15.5-2.05,19.61-2.43,5.6-6.72,8-15.31,8H182.66c-6.54,0-10.46-1.5-13.26-4.67a18.59,18.59,0,0,1-3.74-9.15c-.37-3.18-.37-5.42-.37-13.82v-34c0-12.7.37-15.31,2.05-19.42,2.43-5.6,6.72-8,15.32-8h5.22l7.66-.19H224.3Zm-10.84,22.22H195.73c-6.35,0-7.85.56-8.59,2.8-.38,1.31-.38,2.43-.56,6.17,0,3-.19,5-.19,9v8.78c0,3.73.19,5.79.19,9,.18,3.74.18,4.86.56,6.16.74,2.24,2.24,2.8,8.59,2.8h28.38c6.35,0,7.85-.56,8.59-2.8.38-1.3.38-2.42.56-6.16,0-2.8.19-5.23.19-9v-8.78c0-3.92-.19-6.16-.19-9-.18-3.74-.18-4.86-.56-6.17-.74-2.24-2.24-2.8-8.59-2.8Z" transform="translate(-130.31 -340.05)"/><path class="b923ae74-58ed-49ab-a2f7-d5849a25dc50" d="M232,478.42h5.23c6.53,0,10.45,1.3,13.25,4.67a18.61,18.61,0,0,1,3.74,9c.37,3.36.37,5.6.37,13.82v34c0,12.88-.37,15.5-2.05,19.61-2.43,5.6-6.72,8-15.31,8H182.66c-6.54,0-10.46-1.5-13.26-4.67a18.59,18.59,0,0,1-3.74-9.15c-.37-3.18-.37-5.42-.37-13.82v-34l0-5.21s-35-21.88-35-22.24m90.81,22.22H195.73c-6.35,0-7.85.56-8.59,2.8-.38,1.31-.38,2.43-.56,6.16,0,3-.19,5-.19,9v8.77c0,3.74.19,5.79.19,9,.18,3.73.18,4.85.56,6.16.74,2.24,2.24,2.8,8.59,2.8h28.38c6.35,0,7.85-.56,8.59-2.8.38-1.31.38-2.43.56-6.16,0-2.8.19-5.23.19-9v-8.77c0-3.92-.19-6.16-.19-9-.18-3.73-.18-4.85-.56-6.16-.74-2.24-2.24-2.8-8.59-2.8Z" transform="translate(-130.31 -340.05)"/><path class="b7cb89da-474f-444a-9a41-b60d52377202" d="M254.55,420.6v7.84c0,12.89-.37,15.5-2.05,19.61-2.43,5.6-6.72,8-15.31,8H182.66c-6.54,0-10.46-1.5-13.26-4.67a18.59,18.59,0,0,1-3.74-9.15c-.37-3.18-.37-5.42-.37-13.82v-33.8c0-12.7.37-15.31,2.05-19.42,2.43-5.61,6.72-7.66,15.32-8l5.22-.19h32.5v66.86h3.73c6.17,0,7.85-.56,8.59-2.81.38-1.3.38-2.42.56-6.16,0-2.8.19-5.23.19-9V367h21.1Zm-58.82-31.19c-4.67,0-6.54.37-7.66,1.31-1.49,1.3-1.68,3.36-1.68,16.62v8.59c0,3.73.19,5.79.19,9,.18,3.74.18,4.86.56,6.16.74,2.06,2.8,2.81,7.47,2.81h4.48V389.41Z" transform="translate(-130.31 -340.05)"/><circle class="bf676bcf-cebd-4d9d-aa98-05a70198d908" cx="468.15" cy="293.54" r="266.86"/><rect class="f4810b1c-9b84-4d85-9a50-6c1bce0e1359" x="459.48" y="12.68" width="20.01" height="166.79"/><rect class="e0dd8e80-4f04-4091-a133-62bd95d3e14c" x="511.94" y="293.13" width="26.69" height="26.69" rx="4.31"/><rect class="e0dd8e80-4f04-4091-a133-62bd95d3e14c" x="456.14" y="293.13" width="26.69" height="26.69" rx="4.31"/><rect class="e0dd8e80-4f04-4091-a133-62bd95d3e14c" x="400.35" y="293.13" width="26.69" height="26.69" rx="4.31"/><rect class="e0dd8e80-4f04-4091-a133-62bd95d3e14c" x="567.74" y="293.13" width="26.69" height="26.69" rx="4.31"/><rect class="e0dd8e80-4f04-4091-a133-62bd95d3e14c" x="344.55" y="293.13" width="26.69" height="26.69" rx="4.31"/><path class="b7cb89da-474f-444a-9a41-b60d52377202" d="M598.46,927.13a293.54,293.54,0,1,1,207.56-86A291.63,291.63,0,0,1,598.46,927.13Zm0-560.4c-147.15,0-266.86,119.71-266.86,266.86S451.31,900.45,598.46,900.45,865.31,780.74,865.31,633.59,745.6,366.73,598.46,366.73Z" transform="translate(-130.31 -340.05)"/><path class="e0dd8e80-4f04-4091-a133-62bd95d3e14c" d="M700.73,774.87H498.85a2.66,2.66,0,0,1-2.47-1.67l-8.63-21.35a2.67,2.67,0,0,1,2.47-3.67H709.36a2.67,2.67,0,0,1,2.48,3.67l-8.63,21.35A2.68,2.68,0,0,1,700.73,774.87Z" transform="translate(-130.31 -340.05)"/><path class="e0dd8e80-4f04-4091-a133-62bd95d3e14c" d="M746.25,544.86H453.53a2.67,2.67,0,0,1-2.34-4l11.74-21.35a2.67,2.67,0,0,1,2.34-1.39h270.3a2.68,2.68,0,0,1,2.39,1.48L748.63,541A2.67,2.67,0,0,1,746.25,544.86Z" transform="translate(-130.31 -340.05)"/><rect class="efc8193d-bc7b-4dad-b542-bec3b25c0d8d" x="422.12" y="184.8" width="100.07" height="13.34" rx="2"/><path class="bf676bcf-cebd-4d9d-aa98-05a70198d908" d="M485,788.37" transform="translate(-130.31 -340.05)"/></svg>