<svg id="f899ec20-ab67-4d31-8439-f74defd33365" data-name="Layer 1" xmlns="http://www.w3.org/2000/svg" viewBox="0 0 761.69 587.08"><defs><style>.aaf5e613-7236-4f06-a0f6-32a20a283e6d{fill:#fff;}.a9334fa9-cf96-426c-afc5-91e96260fbf2{fill:#5fff5f;}.b384a851-acd5-4a8a-b4f6-1b90e23266cf{fill:#5fffff;}.a2fd6186-85db-4945-b5a5-2d520467f850{fill:#dfdfdf;}.fc6c6044-49fa-4148-9967-9dc330fce63e{fill:#303030;}.b7ffa202-ad32-4774-b357-e0daadb03778{fill:#202020;}.bf3d0f16-b4bc-42a5-91fa-5357ddd58de2{fill:#ff30ff;}</style></defs><title>triode-logo--dark-03-03</title><path class="aaf5e613-7236-4f06-a0f6-32a20a283e6d" d="M128.55,564h-21.1V541.59h21.1Z" transform="translate(-4.31 -4.05)"/><path class="aaf5e613-7236-4f06-a0f6-32a20a283e6d" d="M60.71,564H39.61V541.59h21.1Z" transform="translate(-4.31 -4.05)"/><path class="a9334fa9-cf96-426c-afc5-91e96260fbf2" d="M39.27,386.43H18.17V364l10.65,11.15Z" transform="translate(-4.31 -4.05)"/><path class="aaf5e613-7236-4f06-a0f6-32a20a283e6d" d="M60.39,497.48h68.16v22.23H25.28V497.48h14V474.89h21.1Z" transform="translate(-4.31 -4.05)"/><path class="aaf5e613-7236-4f06-a0f6-32a20a283e6d" d="M60.39,430.78h68.16V453H39.29V408.37h21.1Z" transform="translate(-4.31 -4.05)"/><polygon class="a9334fa9-cf96-426c-afc5-91e96260fbf2" points="124.25 382.44 124.25 360.21 34.98 360.21 56.17 382.38 124.25 382.44"/><path class="a9334fa9-cf96-426c-afc5-91e96260fbf2" d="M106,253.3h5.23c6.53,0,10.45,1.31,13.25,4.67a18.61,18.61,0,0,1,3.74,9c.37,3.36.37,5.6.37,13.82v34c0,12.89-.37,15.5-2.05,19.61-2.43,5.6-6.72,8-15.31,8H56.66c-6.54,0-10.46-1.5-13.26-4.67a18.59,18.59,0,0,1-3.74-9.15c-.37-3.18-.37-5.42-.37-13.82v-34c0-12.7.37-15.31,2.05-19.42,2.43-5.6,6.72-8,15.32-8h5.22l7.66-.19H98.3ZM95.12,275.52H69.73c-6.35,0-7.85.56-8.59,2.8-.38,1.31-.38,2.43-.56,6.17,0,3-.19,5-.19,9v8.78c0,3.73.19,5.79.19,9,.18,3.74.18,4.86.56,6.16.74,2.24,2.24,2.8,8.59,2.8H98.11c6.35,0,7.85-.56,8.59-2.8.38-1.3.38-2.42.56-6.16,0-2.8.19-5.23.19-9v-8.78c0-3.92-.19-6.16-.19-9-.18-3.74-.18-4.86-.56-6.17-.74-2.24-2.24-2.8-8.59-2.8Z" transform="translate(-4.31 -4.05)"/><path class="b384a851-acd5-4a8a-b4f6-1b90e23266cf" d="M106,142.42h5.23c6.53,0,10.45,1.3,13.25,4.67a18.61,18.61,0,0,1,3.74,9c.37,3.36.37,5.6.37,13.82v34c0,12.88-.37,15.5-2.05,19.61-2.43,5.6-6.72,8-15.31,8H56.66c-6.54,0-10.46-1.5-13.26-4.67a18.59,18.59,0,0,1-3.74-9.15c-.37-3.18-.37-5.42-.37-13.82v-34l0-5.21s-35-21.88-35-22.24m90.81,22.22H69.73c-6.35,0-7.85.56-8.59,2.8-.38,1.31-.38,2.43-.56,6.16,0,3-.19,5.05-.19,9v8.77c0,3.74.19,5.79.19,9,.18,3.73.18,4.85.56,6.16.74,2.24,2.24,2.8,8.59,2.8H98.11c6.35,0,7.85-.56,8.59-2.8.38-1.31.38-2.43.56-6.16,0-2.8.19-5.23.19-9v-8.77c0-3.92-.19-6.16-.19-9-.18-3.73-.18-4.85-.56-6.16-.74-2.24-2.24-2.8-8.59-2.8Z" transform="translate(-4.31 -4.05)"/><path class="aaf5e613-7236-4f06-a0f6-32a20a283e6d" d="M128.55,84.6v7.84c0,12.89-.37,15.5-2.05,19.61-2.43,5.6-6.72,8-15.31,8H56.66c-6.54,0-10.46-1.5-13.26-4.67a18.59,18.59,0,0,1-3.74-9.15c-.37-3.18-.37-5.42-.37-13.82V58.64c0-12.7.37-15.31,2.05-19.42,2.43-5.61,6.72-7.66,15.32-8L61.88,31h32.5V97.86h3.73c6.17,0,7.85-.56,8.59-2.81.38-1.3.38-2.42.56-6.16,0-2.8.19-5.23.19-9V31h21.1ZM69.73,53.41c-4.67,0-6.54.37-7.66,1.31-1.49,1.3-1.68,3.36-1.68,16.62v8.59c0,3.73.19,5.79.19,9,.18,3.74.18,4.86.56,6.16.74,2.06,2.8,2.81,7.47,2.81h4.48V53.41Z" transform="translate(-4.31 -4.05)"/><circle class="aaf5e613-7236-4f06-a0f6-32a20a283e6d" cx="468.15" cy="293.54" r="266.86"/><rect class="a2fd6186-85db-4945-b5a5-2d520467f850" x="459.48" y="12.68" width="20.01" height="166.79"/><rect class="fc6c6044-49fa-4148-9967-9dc330fce63e" x="511.94" y="293.13" width="26.69" height="26.69" rx="4.31"/><rect class="fc6c6044-49fa-4148-9967-9dc330fce63e" x="456.14" y="293.13" width="26.69" height="26.69" rx="4.31"/><rect class="fc6c6044-49fa-4148-9967-9dc330fce63e" x="400.35" y="293.13" width="26.69" height="26.69" rx="4.31"/><rect class="fc6c6044-49fa-4148-9967-9dc330fce63e" x="567.74" y="293.13" width="26.69" height="26.69" rx="4.31"/><rect class="fc6c6044-49fa-4148-9967-9dc330fce63e" x="344.55" y="293.13" width="26.69" height="26.69" rx="4.31"/><path class="b7ffa202-ad32-4774-b357-e0daadb03778" d="M472.46,591.13A293.55,293.55,0,0,1,264.89,90,293.54,293.54,0,1,1,680,505.16,291.6,291.6,0,0,1,472.46,591.13Zm0-560.4c-147.15,0-266.86,119.71-266.86,266.86S325.31,564.45,472.46,564.45,739.31,444.74,739.31,297.59,619.6,30.73,472.46,30.73Z" transform="translate(-4.31 -4.05)"/><path class="fc6c6044-49fa-4148-9967-9dc330fce63e" d="M574.73,438.87H372.85a2.66,2.66,0,0,1-2.47-1.67l-8.63-21.35a2.67,2.67,0,0,1,2.47-3.67H583.36a2.67,2.67,0,0,1,2.48,3.67l-8.63,21.35A2.68,2.68,0,0,1,574.73,438.87Z" transform="translate(-4.31 -4.05)"/><path class="fc6c6044-49fa-4148-9967-9dc330fce63e" d="M620.25,208.86H327.53a2.67,2.67,0,0,1-2.34-4l11.74-21.35a2.67,2.67,0,0,1,2.34-1.39h270.3a2.68,2.68,0,0,1,2.39,1.48L622.63,205A2.67,2.67,0,0,1,620.25,208.86Z" transform="translate(-4.31 -4.05)"/><rect class="bf3d0f16-b4bc-42a5-91fa-5357ddd58de2" x="422.12" y="184.8" width="100.07" height="13.34" rx="2"/><path class="aaf5e613-7236-4f06-a0f6-32a20a283e6d" d="M359,452.37" transform="translate(-4.31 -4.05)"/></svg>